G04*
G04 #@! TF.GenerationSoftware,Altium Limited,Altium Designer,18.1.7 (191)*
G04*
G04 Layer_Color=16711935*
%FSLAX25Y25*%
%MOIN*%
G70*
G01*
G75*
%ADD60C,0.00079*%
%ADD61C,0.00394*%
D60*
X286417Y512303D02*
X286393Y513302D01*
X286321Y514298D01*
X286200Y515290D01*
X286032Y516274D01*
X285817Y517250D01*
X285554Y518213D01*
X285246Y519163D01*
X284891Y520097D01*
X284492Y521013D01*
X284050Y521909D01*
X283564Y522782D01*
X283037Y523630D01*
X282470Y524452D01*
X281863Y525246D01*
X281219Y526009D01*
X280539Y526741D01*
X279824Y527439D01*
X279076Y528101D01*
X278298Y528726D01*
X277489Y529314D01*
X276654Y529861D01*
X275793Y530367D01*
X274908Y530832D01*
X274003Y531253D01*
X273077Y531629D01*
X272135Y531961D01*
X271178Y532246D01*
X270208Y532485D01*
X269228Y532677D01*
X268239Y532822D01*
X267245Y532918D01*
X266247Y532966D01*
X265248D01*
X264251Y532918D01*
X263257Y532822D01*
X262268Y532677D01*
X261288Y532485D01*
X260318Y532246D01*
X259361Y531961D01*
X258418Y531629D01*
X257493Y531253D01*
X256588Y530832D01*
X255703Y530367D01*
X254842Y529861D01*
X254007Y529314D01*
X253198Y528726D01*
X252419Y528101D01*
X251672Y527439D01*
X250957Y526741D01*
X250277Y526009D01*
X249633Y525246D01*
X249026Y524452D01*
X248459Y523630D01*
X247932Y522782D01*
X247446Y521909D01*
X247004Y521013D01*
X246605Y520097D01*
X246250Y519163D01*
X245942Y518213D01*
X245679Y517250D01*
X245464Y516274D01*
X245296Y515290D01*
X245175Y514298D01*
X245103Y513302D01*
X245079Y512303D01*
X245103Y511305D01*
X245175Y510308D01*
X245296Y509317D01*
X245464Y508332D01*
X245679Y507357D01*
X245942Y506393D01*
X246250Y505443D01*
X246605Y504509D01*
X247004Y503593D01*
X247446Y502698D01*
X247932Y501825D01*
X248459Y500976D01*
X249026Y500154D01*
X249633Y499360D01*
X250277Y498597D01*
X250957Y497865D01*
X251672Y497168D01*
X252419Y496505D01*
X253198Y495880D01*
X254006Y495293D01*
X254842Y494745D01*
X255703Y494239D01*
X256588Y493775D01*
X257493Y493354D01*
X258418Y492977D01*
X259361Y492646D01*
X260318Y492360D01*
X261288Y492121D01*
X262268Y491929D01*
X263257Y491784D01*
X264251Y491688D01*
X265248Y491640D01*
X266247Y491640D01*
X267245Y491688D01*
X268239Y491784D01*
X269228Y491929D01*
X270208Y492121D01*
X271178Y492360D01*
X272135Y492645D01*
X273077Y492977D01*
X274003Y493354D01*
X274908Y493775D01*
X275793Y494239D01*
X276654Y494745D01*
X277489Y495293D01*
X278297Y495880D01*
X279076Y496505D01*
X279824Y497168D01*
X280539Y497865D01*
X281219Y498597D01*
X281863Y499360D01*
X282470Y500154D01*
X283037Y500976D01*
X283564Y501825D01*
X284050Y502698D01*
X284492Y503593D01*
X284891Y504509D01*
X285245Y505443D01*
X285554Y506393D01*
X285817Y507357D01*
X286032Y508332D01*
X286200Y509316D01*
X286321Y510308D01*
X286393Y511304D01*
X286417Y512303D01*
X286417Y467028D02*
X286393Y468026D01*
X286321Y469022D01*
X286200Y470014D01*
X286032Y470999D01*
X285817Y471974D01*
X285554Y472938D01*
X285246Y473888D01*
X284891Y474822D01*
X284492Y475738D01*
X284050Y476633D01*
X283564Y477506D01*
X283037Y478355D01*
X282470Y479177D01*
X281863Y479970D01*
X281219Y480734D01*
X280539Y481465D01*
X279824Y482163D01*
X279076Y482825D01*
X278298Y483451D01*
X277489Y484038D01*
X276654Y484585D01*
X275793Y485092D01*
X274908Y485556D01*
X274003Y485977D01*
X273077Y486354D01*
X272135Y486685D01*
X271178Y486971D01*
X270208Y487210D01*
X269228Y487402D01*
X268239Y487546D01*
X267245Y487642D01*
X266247Y487691D01*
X265248D01*
X264251Y487642D01*
X263257Y487546D01*
X262268Y487402D01*
X261288Y487210D01*
X260318Y486971D01*
X259361Y486685D01*
X258418Y486354D01*
X257493Y485977D01*
X256588Y485556D01*
X255703Y485092D01*
X254842Y484585D01*
X254006Y484038D01*
X253198Y483451D01*
X252419Y482825D01*
X251672Y482163D01*
X250957Y481465D01*
X250277Y480734D01*
X249633Y479970D01*
X249026Y479177D01*
X248459Y478355D01*
X247932Y477506D01*
X247446Y476633D01*
X247004Y475738D01*
X246605Y474822D01*
X246250Y473888D01*
X245942Y472938D01*
X245679Y471974D01*
X245464Y470999D01*
X245296Y470014D01*
X245175Y469022D01*
X245103Y468026D01*
X245079Y467028D01*
X245103Y466029D01*
X245175Y465033D01*
X245296Y464041D01*
X245464Y463056D01*
X245679Y462081D01*
X245942Y461117D01*
X246250Y460167D01*
X246605Y459233D01*
X247004Y458318D01*
X247446Y457422D01*
X247932Y456549D01*
X248459Y455700D01*
X249026Y454878D01*
X249633Y454085D01*
X250277Y453321D01*
X250957Y452590D01*
X251672Y451892D01*
X252419Y451230D01*
X253198Y450604D01*
X254006Y450017D01*
X254842Y449470D01*
X255703Y448963D01*
X256588Y448499D01*
X257493Y448078D01*
X258418Y447701D01*
X259361Y447370D01*
X260318Y447084D01*
X261288Y446845D01*
X262268Y446653D01*
X263257Y446509D01*
X264251Y446413D01*
X265248Y446364D01*
X266247Y446364D01*
X267245Y446413D01*
X268239Y446509D01*
X269228Y446653D01*
X270208Y446845D01*
X271178Y447084D01*
X272135Y447370D01*
X273077Y447701D01*
X274003Y448078D01*
X274908Y448499D01*
X275793Y448963D01*
X276654Y449470D01*
X277489Y450017D01*
X278297Y450604D01*
X279076Y451230D01*
X279824Y451892D01*
X280539Y452590D01*
X281219Y453321D01*
X281863Y454085D01*
X282470Y454878D01*
X283037Y455700D01*
X283564Y456549D01*
X284050Y457422D01*
X284492Y458317D01*
X284891Y459233D01*
X285245Y460167D01*
X285554Y461117D01*
X285817Y462081D01*
X286032Y463056D01*
X286200Y464041D01*
X286321Y465032D01*
X286393Y466029D01*
X286417Y467027D01*
D61*
X357480Y473917D02*
X359055D01*
X358268Y473130D02*
Y474705D01*
M02*
