G04*
G04 #@! TF.GenerationSoftware,Altium Limited,Altium Designer,18.1.7 (191)*
G04*
G04 Layer_Color=65535*
%FSLAX25Y25*%
%MOIN*%
G70*
G01*
G75*
%ADD10C,0.00984*%
%ADD11C,0.00787*%
%ADD12C,0.01000*%
%ADD13C,0.00591*%
D10*
X201122Y550591D02*
X200384Y551017D01*
Y550164D01*
X201122Y550591D01*
X328445Y381988D02*
X327707Y382415D01*
Y381562D01*
X328445Y381988D01*
X286417Y512303D02*
X286393Y513302D01*
X286321Y514298D01*
X286200Y515290D01*
X286032Y516274D01*
X285817Y517250D01*
X285554Y518213D01*
X285246Y519163D01*
X284891Y520097D01*
X284492Y521013D01*
X284050Y521909D01*
X283564Y522782D01*
X283037Y523630D01*
X282470Y524452D01*
X281863Y525246D01*
X281219Y526009D01*
X280539Y526741D01*
X279824Y527439D01*
X279076Y528101D01*
X278298Y528726D01*
X277489Y529314D01*
X276654Y529861D01*
X275793Y530367D01*
X274908Y530832D01*
X274003Y531253D01*
X273077Y531629D01*
X272135Y531961D01*
X271178Y532246D01*
X270208Y532485D01*
X269228Y532677D01*
X268239Y532822D01*
X267245Y532918D01*
X266247Y532966D01*
X265248D01*
X264251Y532918D01*
X263257Y532822D01*
X262268Y532677D01*
X261288Y532485D01*
X260318Y532246D01*
X259361Y531961D01*
X258418Y531629D01*
X257493Y531253D01*
X256588Y530832D01*
X255703Y530367D01*
X254842Y529861D01*
X254007Y529314D01*
X253198Y528726D01*
X252419Y528101D01*
X251672Y527439D01*
X250957Y526741D01*
X250277Y526009D01*
X249633Y525246D01*
X249026Y524452D01*
X248459Y523630D01*
X247932Y522782D01*
X247446Y521909D01*
X247004Y521013D01*
X246605Y520097D01*
X246250Y519163D01*
X245942Y518213D01*
X245679Y517250D01*
X245464Y516274D01*
X245296Y515290D01*
X245175Y514298D01*
X245103Y513302D01*
X245079Y512303D01*
X245103Y511305D01*
X245175Y510308D01*
X245296Y509317D01*
X245464Y508332D01*
X245679Y507357D01*
X245942Y506393D01*
X246250Y505443D01*
X246605Y504509D01*
X247004Y503593D01*
X247446Y502698D01*
X247932Y501825D01*
X248459Y500976D01*
X249026Y500154D01*
X249633Y499360D01*
X250277Y498597D01*
X250957Y497865D01*
X251672Y497168D01*
X252419Y496505D01*
X253198Y495880D01*
X254006Y495293D01*
X254842Y494745D01*
X255703Y494239D01*
X256588Y493775D01*
X257493Y493354D01*
X258418Y492977D01*
X259361Y492646D01*
X260318Y492360D01*
X261288Y492121D01*
X262268Y491929D01*
X263257Y491784D01*
X264251Y491688D01*
X265248Y491640D01*
X266247Y491640D01*
X267245Y491688D01*
X268239Y491784D01*
X269228Y491929D01*
X270208Y492121D01*
X271178Y492360D01*
X272135Y492645D01*
X273077Y492977D01*
X274003Y493354D01*
X274908Y493775D01*
X275793Y494239D01*
X276654Y494745D01*
X277489Y495293D01*
X278297Y495880D01*
X279076Y496505D01*
X279824Y497168D01*
X280539Y497865D01*
X281219Y498597D01*
X281863Y499360D01*
X282470Y500154D01*
X283037Y500976D01*
X283564Y501825D01*
X284050Y502698D01*
X284492Y503593D01*
X284891Y504509D01*
X285245Y505443D01*
X285554Y506393D01*
X285817Y507357D01*
X286032Y508332D01*
X286200Y509316D01*
X286321Y510308D01*
X286393Y511304D01*
X286417Y512303D01*
X286417Y467028D02*
X286393Y468026D01*
X286321Y469022D01*
X286200Y470014D01*
X286032Y470999D01*
X285817Y471974D01*
X285554Y472938D01*
X285246Y473888D01*
X284891Y474822D01*
X284492Y475738D01*
X284050Y476633D01*
X283564Y477506D01*
X283037Y478355D01*
X282470Y479177D01*
X281863Y479970D01*
X281219Y480734D01*
X280539Y481465D01*
X279824Y482163D01*
X279076Y482825D01*
X278298Y483451D01*
X277489Y484038D01*
X276654Y484585D01*
X275793Y485092D01*
X274908Y485556D01*
X274003Y485977D01*
X273077Y486354D01*
X272135Y486685D01*
X271178Y486971D01*
X270208Y487210D01*
X269228Y487402D01*
X268239Y487546D01*
X267245Y487642D01*
X266247Y487691D01*
X265248D01*
X264251Y487642D01*
X263257Y487546D01*
X262268Y487402D01*
X261288Y487210D01*
X260318Y486971D01*
X259361Y486685D01*
X258418Y486354D01*
X257493Y485977D01*
X256588Y485556D01*
X255703Y485092D01*
X254842Y484585D01*
X254006Y484038D01*
X253198Y483451D01*
X252419Y482825D01*
X251672Y482163D01*
X250957Y481465D01*
X250277Y480734D01*
X249633Y479970D01*
X249026Y479177D01*
X248459Y478355D01*
X247932Y477506D01*
X247446Y476633D01*
X247004Y475738D01*
X246605Y474822D01*
X246250Y473888D01*
X245942Y472938D01*
X245679Y471974D01*
X245464Y470999D01*
X245296Y470014D01*
X245175Y469022D01*
X245103Y468026D01*
X245079Y467028D01*
X245103Y466029D01*
X245175Y465033D01*
X245296Y464041D01*
X245464Y463056D01*
X245679Y462081D01*
X245942Y461117D01*
X246250Y460167D01*
X246605Y459233D01*
X247004Y458318D01*
X247446Y457422D01*
X247932Y456549D01*
X248459Y455700D01*
X249026Y454878D01*
X249633Y454085D01*
X250277Y453321D01*
X250957Y452590D01*
X251672Y451892D01*
X252419Y451230D01*
X253198Y450604D01*
X254006Y450017D01*
X254842Y449470D01*
X255703Y448963D01*
X256588Y448499D01*
X257493Y448078D01*
X258418Y447701D01*
X259361Y447370D01*
X260318Y447084D01*
X261288Y446845D01*
X262268Y446653D01*
X263257Y446509D01*
X264251Y446413D01*
X265248Y446364D01*
X266247Y446364D01*
X267245Y446413D01*
X268239Y446509D01*
X269228Y446653D01*
X270208Y446845D01*
X271178Y447084D01*
X272135Y447370D01*
X273077Y447701D01*
X274003Y448078D01*
X274908Y448499D01*
X275793Y448963D01*
X276654Y449470D01*
X277489Y450017D01*
X278297Y450604D01*
X279076Y451230D01*
X279824Y451892D01*
X280539Y452590D01*
X281219Y453321D01*
X281863Y454085D01*
X282470Y454878D01*
X283037Y455700D01*
X283564Y456549D01*
X284050Y457422D01*
X284492Y458317D01*
X284891Y459233D01*
X285245Y460167D01*
X285554Y461117D01*
X285817Y462081D01*
X286032Y463056D01*
X286200Y464041D01*
X286321Y465032D01*
X286393Y466029D01*
X286417Y467027D01*
X297638Y473917D02*
X296900Y474344D01*
Y473491D01*
X297638Y473917D01*
D11*
X354346Y428312D02*
Y438155D01*
X303528D02*
X354346D01*
X303528Y418470D02*
Y438155D01*
X304528Y418470D02*
X353346D01*
X354346D02*
Y428312D01*
X303528Y418470D02*
X304528D01*
X353346D02*
X354346D01*
X273031Y152559D02*
X276181D01*
X273031Y158465D02*
X276181D01*
X64961Y184449D02*
Y187599D01*
X59055Y184449D02*
Y187599D01*
X186024Y537641D02*
Y541972D01*
X204272Y549409D02*
X207815D01*
Y546260D02*
Y549409D01*
X204272Y537599D02*
X207815D01*
Y540748D01*
X215630Y558976D02*
Y568976D01*
X195630Y558976D02*
X215630D01*
X195630D02*
Y568976D01*
X215630D01*
X151496Y193819D02*
Y203819D01*
X101496Y193819D02*
X151496D01*
X101496Y203819D02*
X151496D01*
X101496Y193819D02*
Y203819D01*
X301575Y365059D02*
Y376083D01*
X327953Y365059D02*
Y376083D01*
X301575Y365059D02*
X327953D01*
X301575Y376083D02*
X327953D01*
X343307Y467815D02*
Y480020D01*
X372638Y467815D02*
X374410Y469587D01*
X372638Y480020D02*
X374410Y478248D01*
Y469587D02*
Y478248D01*
X343307Y467815D02*
X353543D01*
X343307Y480020D02*
X353543D01*
X362992D02*
X372638D01*
X362992Y467815D02*
X372638D01*
X213386Y231299D02*
X217717D01*
X213386Y252953D02*
X217717D01*
X243898Y105315D02*
X248228D01*
X243898Y125984D02*
X248228D01*
X213386Y314961D02*
X217717D01*
X290512Y558977D02*
Y568976D01*
X270512Y558977D02*
X290512D01*
X270512D02*
Y568976D01*
X290512D01*
X105433Y558977D02*
X165433D01*
X105433Y568976D02*
X165433D01*
X105433Y558977D02*
Y568976D01*
X165433Y558977D02*
Y568976D01*
X249016Y293504D02*
Y306890D01*
X235236Y293504D02*
Y306890D01*
X154291Y448898D02*
X174291D01*
X154291Y438898D02*
Y448898D01*
Y438898D02*
X174291D01*
Y448898D01*
X338386Y377961D02*
Y381110D01*
X344291Y377961D02*
Y381110D01*
X284252Y377961D02*
Y381110D01*
X290158Y377961D02*
Y381110D01*
X294291Y484351D02*
Y493209D01*
Y484351D02*
X335236D01*
Y493209D01*
X104567Y429055D02*
Y439055D01*
X84567Y429055D02*
X104567D01*
X84567D02*
Y439055D01*
X104567D01*
D12*
X361610Y188819D02*
Y263622D01*
X263185D02*
X361610D01*
X263185Y188819D02*
X361610D01*
X263185Y226220D02*
Y263622D01*
Y188819D02*
Y226220D01*
X263213Y100764D02*
Y146764D01*
X335213D01*
Y100764D02*
Y146764D01*
X263213Y100764D02*
X335213D01*
X263154Y27929D02*
X330083D01*
Y74929D01*
X263154Y27929D02*
Y74929D01*
X330083D01*
X101496Y163110D02*
X151496D01*
X101496D02*
Y173110D01*
X151496D01*
Y163110D02*
Y173110D01*
X196496D01*
Y40611D02*
Y173110D01*
X183996Y28111D02*
X196496Y40611D01*
X68996Y28111D02*
X183996D01*
X56496Y40611D02*
X68996Y28111D01*
X56496Y173110D02*
X101496D01*
X56496Y40611D02*
Y173110D01*
X76496Y48110D02*
Y173110D01*
Y48110D02*
X176496D01*
Y173110D01*
X65693Y249433D02*
X77693D01*
X65693Y301433D02*
X77693D01*
Y249433D02*
Y301433D01*
X65693Y224252D02*
Y275433D01*
Y326614D01*
X203488D01*
X65693Y224252D02*
X203488D01*
Y261654D02*
Y289213D01*
Y224252D02*
Y261654D01*
Y319233D02*
Y326614D01*
Y289213D02*
Y308406D01*
Y319233D01*
X41339Y427166D02*
X241142D01*
X41339Y342520D02*
Y427166D01*
Y342520D02*
X241142D01*
Y427166D01*
X41339Y450788D02*
X241142D01*
X41339D02*
Y535433D01*
X241142D01*
Y450788D02*
Y535433D01*
X0Y0D02*
X393701D01*
X0D02*
Y590551D01*
X393701Y-0D02*
Y590551D01*
X0D02*
X393701D01*
X271555Y167460D02*
X270555Y168460D01*
X268556D01*
X267556Y167460D01*
Y163461D01*
X268556Y162462D01*
X270555D01*
X271555Y163461D01*
X273554Y168460D02*
X277553D01*
Y167460D01*
X273554Y163461D01*
Y162462D01*
X63107Y202120D02*
X62107Y203120D01*
X60108D01*
X59108Y202120D01*
Y198122D01*
X60108Y197122D01*
X62107D01*
X63107Y198122D01*
X69105Y203120D02*
X67105Y202120D01*
X65106Y200121D01*
Y198122D01*
X66106Y197122D01*
X68105D01*
X69105Y198122D01*
Y199121D01*
X68105Y200121D01*
X65106D01*
X181102Y544334D02*
Y550332D01*
X184101D01*
X185101Y549332D01*
Y547333D01*
X184101Y546333D01*
X181102D01*
X183102D02*
X185101Y544334D01*
X191099Y550332D02*
X189100Y549332D01*
X187100Y547333D01*
Y545333D01*
X188100Y544334D01*
X190100D01*
X191099Y545333D01*
Y546333D01*
X190100Y547333D01*
X187100D01*
X219550Y541872D02*
Y545871D01*
X218550Y546871D01*
X216551D01*
X215551Y545871D01*
Y541872D01*
X216551Y540872D01*
X218550D01*
X217551Y542872D02*
X219550Y540872D01*
X218550D02*
X219550Y541872D01*
X221549Y540872D02*
X223549D01*
X222549D01*
Y546871D01*
X221549Y545871D01*
X196227Y572403D02*
Y578401D01*
X199226D01*
X200226Y577402D01*
Y575402D01*
X199226Y574403D01*
X196227D01*
X202225Y577402D02*
X203225Y578401D01*
X205224D01*
X206224Y577402D01*
Y576402D01*
X205224Y575402D01*
X204225D01*
X205224D01*
X206224Y574403D01*
Y573403D01*
X205224Y572403D01*
X203225D01*
X202225Y573403D01*
X102362Y186378D02*
Y192376D01*
X105361D01*
X106361Y191376D01*
Y189377D01*
X105361Y188377D01*
X102362D01*
X108360Y186378D02*
X110360D01*
X109360D01*
Y192376D01*
X108360Y191376D01*
X213584Y237205D02*
Y243203D01*
X216583D01*
X217583Y242203D01*
Y240204D01*
X216583Y239204D01*
X213584D01*
X215583D02*
X217583Y237205D01*
X223581Y243203D02*
X219582D01*
Y240204D01*
X221581Y241204D01*
X222581D01*
X223581Y240204D01*
Y238205D01*
X222581Y237205D01*
X220582D01*
X219582Y238205D01*
X213583Y258858D02*
Y264856D01*
X216582D01*
X217581Y263857D01*
Y261857D01*
X216582Y260858D01*
X213583D01*
X215582D02*
X217581Y258858D01*
X222580D02*
Y264856D01*
X219581Y261857D01*
X223579D01*
X245079Y92520D02*
Y98518D01*
X248078D01*
X249077Y97518D01*
Y95519D01*
X248078Y94519D01*
X245079D01*
X247078D02*
X249077Y92520D01*
X251077Y97518D02*
X252077Y98518D01*
X254076D01*
X255076Y97518D01*
Y96518D01*
X254076Y95519D01*
X253076D01*
X254076D01*
X255076Y94519D01*
Y93519D01*
X254076Y92520D01*
X252077D01*
X251077Y93519D01*
X244094Y133858D02*
Y139856D01*
X247094D01*
X248093Y138857D01*
Y136857D01*
X247094Y135858D01*
X244094D01*
X246094D02*
X248093Y133858D01*
X254091D02*
X250093D01*
X254091Y137857D01*
Y138857D01*
X253092Y139856D01*
X251092D01*
X250093Y138857D01*
X267778Y24683D02*
X266779Y25683D01*
X264779D01*
X263779Y24683D01*
Y23684D01*
X264779Y22684D01*
X266779D01*
X267778Y21684D01*
Y20685D01*
X266779Y19685D01*
X264779D01*
X263779Y20685D01*
X273776Y25683D02*
X269778D01*
Y19685D01*
X273776D01*
X269778Y22684D02*
X271777D01*
X275776Y19685D02*
Y25683D01*
X279774Y19685D01*
Y25683D01*
X285772Y19685D02*
X281774D01*
X285772Y23684D01*
Y24683D01*
X284773Y25683D01*
X282773D01*
X281774Y24683D01*
X267778Y97518D02*
X266779Y98518D01*
X264779D01*
X263779Y97518D01*
Y96518D01*
X264779Y95519D01*
X266779D01*
X267778Y94519D01*
Y93519D01*
X266779Y92520D01*
X264779D01*
X263779Y93519D01*
X273776Y98518D02*
X269778D01*
Y92520D01*
X273776D01*
X269778Y95519D02*
X271777D01*
X275776Y92520D02*
Y98518D01*
X279774Y92520D01*
Y98518D01*
X281774Y92520D02*
X283773D01*
X282773D01*
Y98518D01*
X281774Y97518D01*
X69944Y220550D02*
X68944Y221549D01*
X66944D01*
X65945Y220550D01*
Y216551D01*
X66944Y215551D01*
X68944D01*
X69944Y216551D01*
Y218550D01*
X67944D01*
X71943Y215551D02*
Y221549D01*
X74942D01*
X75942Y220550D01*
Y218550D01*
X74942Y217550D01*
X71943D01*
X81940Y220550D02*
X80940Y221549D01*
X78941D01*
X77941Y220550D01*
Y219550D01*
X78941Y218550D01*
X80940D01*
X81940Y217550D01*
Y216551D01*
X80940Y215551D01*
X78941D01*
X77941Y216551D01*
X83939Y215551D02*
X85938D01*
X84939D01*
Y221549D01*
X83939Y220550D01*
X213583Y321850D02*
Y327848D01*
X216582D01*
X217582Y326849D01*
Y324849D01*
X216582Y323850D01*
X213583D01*
X215582D02*
X217582Y321850D01*
X219581D02*
X221580D01*
X220581D01*
Y327848D01*
X219581Y326849D01*
X217582Y303227D02*
X216582Y304226D01*
X214582D01*
X213583Y303227D01*
Y299228D01*
X214582Y298228D01*
X216582D01*
X217582Y299228D01*
X223580Y304226D02*
X219581D01*
Y301227D01*
X221580Y302227D01*
X222580D01*
X223580Y301227D01*
Y299228D01*
X222580Y298228D01*
X220581D01*
X219581Y299228D01*
X305709Y446943D02*
Y440945D01*
X309707D01*
X311707D02*
X313706D01*
X312707D01*
Y446943D01*
X311707Y445943D01*
X343504Y489010D02*
Y483012D01*
X346503D01*
X347503Y484011D01*
Y488010D01*
X346503Y489010D01*
X343504D01*
X349502Y483012D02*
X351501D01*
X350502D01*
Y489010D01*
X349502Y488010D01*
X264826Y485313D02*
X263826Y486313D01*
X261826Y486313D01*
X260827Y485313D01*
X260827Y481315D01*
X261826Y480315D01*
X263826Y480315D01*
X264826Y481315D01*
X269824Y480315D02*
X269824Y486313D01*
X266825Y483314D01*
X270824Y483314D01*
X264826Y530589D02*
X263826Y531589D01*
X261826D01*
X260827Y530589D01*
Y526590D01*
X261826Y525591D01*
X263826D01*
X264826Y526590D01*
X266825Y530589D02*
X267825Y531589D01*
X269824D01*
X270824Y530589D01*
Y529589D01*
X269824Y528590D01*
X268824D01*
X269824D01*
X270824Y527590D01*
Y526590D01*
X269824Y525591D01*
X267825D01*
X266825Y526590D01*
X342382Y395596D02*
X341383Y396596D01*
X339383D01*
X338384Y395596D01*
Y391597D01*
X339383Y390598D01*
X341383D01*
X342382Y391597D01*
X348380Y390598D02*
X344382D01*
X348380Y394596D01*
Y395596D01*
X347381Y396596D01*
X345381D01*
X344382Y395596D01*
X288230Y395601D02*
X287231Y396600D01*
X285231D01*
X284231Y395601D01*
Y391602D01*
X285231Y390602D01*
X287231D01*
X288230Y391602D01*
X290230Y390602D02*
X292229D01*
X291229D01*
Y396600D01*
X290230Y395601D01*
X293914Y537687D02*
Y532689D01*
X294914Y531689D01*
X296913D01*
X297913Y532689D01*
Y537687D01*
X303911Y531689D02*
X299912D01*
X303911Y535688D01*
Y536688D01*
X302911Y537687D01*
X300912D01*
X299912Y536688D01*
X301378Y396254D02*
Y391256D01*
X302378Y390256D01*
X304377D01*
X305377Y391256D01*
Y396254D01*
X307376Y390256D02*
X309375D01*
X308376D01*
Y396254D01*
X307376Y395254D01*
X236221Y316929D02*
Y322927D01*
X239220D01*
X240219Y321927D01*
Y319928D01*
X239220Y318929D01*
X236221D01*
X238220D02*
X240219Y316929D01*
X246217Y322927D02*
X242219D01*
Y316929D01*
X246217D01*
X242219Y319928D02*
X244218D01*
X252215Y321927D02*
X251216Y322927D01*
X249216D01*
X248217Y321927D01*
Y320928D01*
X249216Y319928D01*
X251216D01*
X252215Y318929D01*
Y317929D01*
X251216Y316929D01*
X249216D01*
X248217Y317929D01*
X258213Y322927D02*
X254215D01*
Y316929D01*
X258213D01*
X254215Y319928D02*
X256214D01*
X260213Y322927D02*
X264212D01*
X262212D01*
Y316929D01*
X106027Y572406D02*
Y578404D01*
X109026D01*
X110026Y577405D01*
Y575405D01*
X109026Y574406D01*
X106027D01*
X116024Y572406D02*
X112025D01*
X116024Y576405D01*
Y577405D01*
X115024Y578404D01*
X113025D01*
X112025Y577405D01*
X263779Y180118D02*
Y186116D01*
X265779Y184117D01*
X267778Y186116D01*
Y180118D01*
X273776Y186116D02*
X269778D01*
Y180118D01*
X273776D01*
X269778Y183117D02*
X271777D01*
X275776Y180118D02*
Y186116D01*
X277775Y184117D01*
X279774Y186116D01*
Y180118D01*
X281774D02*
X283773D01*
X282773D01*
Y186116D01*
X281774Y185117D01*
X57087Y19685D02*
Y25683D01*
X59086Y23684D01*
X61085Y25683D01*
Y19685D01*
X63085D02*
X65084D01*
X64084D01*
Y25683D01*
X63085Y24683D01*
X159195Y435117D02*
X158196Y436116D01*
X156196D01*
X155197Y435117D01*
Y431118D01*
X156196Y430118D01*
X158196D01*
X159195Y431118D01*
X164194Y436116D02*
X162195D01*
X161195Y435117D01*
Y431118D01*
X162195Y430118D01*
X164194D01*
X165194Y431118D01*
Y435117D01*
X164194Y436116D01*
X167193Y430118D02*
Y436116D01*
X169192Y434117D01*
X171192Y436116D01*
Y430118D01*
X173191D02*
Y436116D01*
X176190D01*
X177190Y435117D01*
Y433117D01*
X176190Y432118D01*
X173191D01*
X183188Y430118D02*
X179189D01*
X183188Y434117D01*
Y435117D01*
X182188Y436116D01*
X180189D01*
X179189Y435117D01*
X89183Y447429D02*
X88183Y448429D01*
X86184D01*
X85184Y447429D01*
Y443430D01*
X86184Y442431D01*
X88183D01*
X89183Y443430D01*
X94181Y448429D02*
X92182D01*
X91182Y447429D01*
Y443430D01*
X92182Y442431D01*
X94181D01*
X95181Y443430D01*
Y447429D01*
X94181Y448429D01*
X97180Y442431D02*
Y448429D01*
X99180Y446429D01*
X101179Y448429D01*
Y442431D01*
X103178D02*
Y448429D01*
X106177D01*
X107177Y447429D01*
Y445430D01*
X106177Y444430D01*
X103178D01*
X109177Y442431D02*
X111176D01*
X110176D01*
Y448429D01*
X109177Y447429D01*
X270366Y577848D02*
Y571850D01*
X273365D01*
X274365Y572850D01*
Y573850D01*
X273365Y574849D01*
X270366D01*
X273365D01*
X274365Y575849D01*
Y576849D01*
X273365Y577848D01*
X270366D01*
X276364D02*
X280363D01*
X278363D01*
Y571850D01*
X282362D02*
X284362D01*
X283362D01*
Y577848D01*
X282362Y576849D01*
D13*
X266063Y563968D02*
X269080D01*
X267572Y565477D02*
Y562459D01*
M02*
