G04*
G04 #@! TF.GenerationSoftware,Altium Limited,Altium Designer,18.1.7 (191)*
G04*
G04 Layer_Color=255*
%FSLAX25Y25*%
%MOIN*%
G70*
G01*
G75*
%ADD14R,0.09843X0.12598*%
%ADD15R,0.04331X0.06693*%
%ADD16R,0.06693X0.04331*%
%ADD17R,0.03937X0.05118*%
%ADD18R,0.04528X0.02362*%
%ADD19R,0.12992X0.09449*%
%ADD20R,0.03937X0.09449*%
%ADD21R,0.09843X0.09843*%
%ADD22R,0.05118X0.03937*%
%ADD23R,0.14567X0.06693*%
%ADD24R,0.05512X0.04331*%
%ADD25R,0.04134X0.12598*%
%ADD26R,0.41142X0.32677*%
%ADD54C,0.33465*%
%ADD55C,0.19685*%
%ADD56R,0.05906X0.05906*%
%ADD57C,0.05906*%
%ADD58C,0.06000*%
D14*
X345882Y428312D02*
D03*
X311992D02*
D03*
D15*
X279921Y155512D02*
D03*
X269291D02*
D03*
D16*
X62008Y191339D02*
D03*
Y180709D02*
D03*
X341339Y374220D02*
D03*
Y384851D02*
D03*
X287205Y374220D02*
D03*
Y384851D02*
D03*
D17*
X189173Y539806D02*
D03*
X182874D02*
D03*
D18*
X200630Y547244D02*
D03*
Y539764D02*
D03*
X209488Y543504D02*
D03*
D19*
X314764Y359154D02*
D03*
D20*
X305709Y381988D02*
D03*
X314764D02*
D03*
X323819D02*
D03*
D21*
X349410Y473917D02*
D03*
X367126D02*
D03*
D22*
X215551Y228150D02*
D03*
Y234449D02*
D03*
Y256102D02*
D03*
Y249803D02*
D03*
X246063Y102165D02*
D03*
Y108465D02*
D03*
Y129134D02*
D03*
Y122835D02*
D03*
X215551Y311811D02*
D03*
Y318110D02*
D03*
D23*
X242126Y288583D02*
D03*
Y311811D02*
D03*
D24*
X215551Y294291D02*
D03*
Y288386D02*
D03*
D25*
X301378Y473917D02*
D03*
X308071D02*
D03*
X314764D02*
D03*
X321457D02*
D03*
X328150D02*
D03*
D26*
X314764Y511122D02*
D03*
D54*
X27559Y31496D02*
D03*
Y295275D02*
D03*
Y559055D02*
D03*
X366071Y31496D02*
D03*
Y295433D02*
D03*
Y559055D02*
D03*
D55*
X51339Y417540D02*
D03*
Y352146D02*
D03*
X231142Y417540D02*
D03*
Y352146D02*
D03*
X51339Y460414D02*
D03*
Y525808D02*
D03*
X231142Y460414D02*
D03*
Y525808D02*
D03*
D56*
X200630Y563976D02*
D03*
X106496Y198819D02*
D03*
X275591Y512303D02*
D03*
Y467028D02*
D03*
X275512Y563976D02*
D03*
X110433D02*
D03*
X159291Y443898D02*
D03*
X89567Y434055D02*
D03*
D57*
X210630Y563976D02*
D03*
X116496Y198819D02*
D03*
X126496D02*
D03*
X136496D02*
D03*
X146496D02*
D03*
X255905Y512303D02*
D03*
Y467028D02*
D03*
X285512Y563976D02*
D03*
X160433D02*
D03*
X150433D02*
D03*
X140433D02*
D03*
X130433D02*
D03*
X120433D02*
D03*
X169291Y443898D02*
D03*
X99567Y434055D02*
D03*
D58*
X269685Y196221D02*
D03*
Y206221D02*
D03*
Y216220D02*
D03*
Y226220D02*
D03*
Y236221D02*
D03*
Y246220D02*
D03*
Y256221D02*
D03*
X269528Y139764D02*
D03*
Y129764D02*
D03*
Y119764D02*
D03*
Y109764D02*
D03*
X328898D02*
D03*
Y119764D02*
D03*
Y129764D02*
D03*
Y139764D02*
D03*
X289213D02*
D03*
X299213D02*
D03*
X309213D02*
D03*
X321654Y66929D02*
D03*
X311654D02*
D03*
X301654D02*
D03*
X291654D02*
D03*
X281654D02*
D03*
X271654D02*
D03*
X106496Y168111D02*
D03*
X116496D02*
D03*
X126496D02*
D03*
X136496D02*
D03*
X146496D02*
D03*
X61851Y164173D02*
D03*
X71851D02*
D03*
Y154174D02*
D03*
Y144174D02*
D03*
Y134174D02*
D03*
Y124173D02*
D03*
Y114173D02*
D03*
Y104174D02*
D03*
Y94174D02*
D03*
Y84174D02*
D03*
Y74173D02*
D03*
Y64174D02*
D03*
Y54173D02*
D03*
Y34174D02*
D03*
X61851Y154174D02*
D03*
Y144174D02*
D03*
Y134174D02*
D03*
Y124173D02*
D03*
Y114173D02*
D03*
Y104174D02*
D03*
Y94174D02*
D03*
Y84174D02*
D03*
Y74173D02*
D03*
Y64174D02*
D03*
Y54173D02*
D03*
Y44173D02*
D03*
X71851D02*
D03*
X81851D02*
D03*
X91851D02*
D03*
X101851D02*
D03*
X111851D02*
D03*
X121851D02*
D03*
X131851D02*
D03*
X141851D02*
D03*
X151851D02*
D03*
X161851D02*
D03*
X171851D02*
D03*
X181851D02*
D03*
X191851D02*
D03*
X181851Y54173D02*
D03*
Y64174D02*
D03*
Y74173D02*
D03*
Y84174D02*
D03*
Y94174D02*
D03*
Y104174D02*
D03*
Y114173D02*
D03*
Y124173D02*
D03*
Y134174D02*
D03*
Y144174D02*
D03*
Y154174D02*
D03*
X191851Y54173D02*
D03*
Y64174D02*
D03*
Y74173D02*
D03*
Y84174D02*
D03*
Y94174D02*
D03*
Y104174D02*
D03*
Y114173D02*
D03*
Y124173D02*
D03*
Y134174D02*
D03*
Y144174D02*
D03*
Y154174D02*
D03*
X181851Y34174D02*
D03*
Y164173D02*
D03*
X191851D02*
D03*
X171851Y34174D02*
D03*
X161851D02*
D03*
X151851D02*
D03*
X141851D02*
D03*
X131851D02*
D03*
X121851D02*
D03*
X111851D02*
D03*
X101851D02*
D03*
X91851D02*
D03*
X81851D02*
D03*
X71693Y295433D02*
D03*
Y285433D02*
D03*
Y275433D02*
D03*
Y265433D02*
D03*
Y255433D02*
D03*
M02*
