G04*
G04 #@! TF.GenerationSoftware,Altium Limited,Altium Designer,18.1.7 (191)*
G04*
G04 Layer_Color=16711935*
%FSLAX25Y25*%
%MOIN*%
G70*
G01*
G75*
%ADD61C,0.00394*%
D61*
X267913Y151969D02*
X281299D01*
X267913Y159055D02*
X281299D01*
Y151969D02*
Y159055D01*
X267913Y151969D02*
Y159055D01*
X65551Y179331D02*
Y192717D01*
X58465Y179331D02*
Y192717D01*
X65551D01*
X58465Y179331D02*
X65551D01*
X181791Y537050D02*
X190256D01*
X181791Y542562D02*
X190256D01*
Y537050D02*
Y542562D01*
X181791Y537050D02*
Y542562D01*
X202303Y537599D02*
Y549409D01*
X207815Y537599D02*
Y549409D01*
X202303D02*
X207815D01*
X202303Y537599D02*
X207815D01*
X301575Y363287D02*
Y377854D01*
X327953Y363287D02*
Y377854D01*
X301575Y363287D02*
X327953D01*
X301575Y377854D02*
X327953D01*
X212795Y227067D02*
Y235531D01*
X218307Y227067D02*
Y235531D01*
X212795Y227067D02*
X218307D01*
X212795Y235531D02*
X218307D01*
Y248720D02*
Y257185D01*
X212795Y248720D02*
Y257185D01*
X218307D01*
X212795Y248720D02*
X218307D01*
X243307Y101083D02*
Y109547D01*
X248819Y101083D02*
Y109547D01*
X243307Y101083D02*
X248819D01*
X243307Y109547D02*
X248819D01*
Y121752D02*
Y130217D01*
X243307Y121752D02*
Y130217D01*
X248819D01*
X243307Y121752D02*
X248819D01*
X212795Y310729D02*
Y319193D01*
X218307Y310729D02*
Y319193D01*
X212795Y310729D02*
X218307D01*
X212795Y319193D02*
X218307D01*
X235236Y311024D02*
X249016D01*
X235236Y305118D02*
Y311024D01*
Y289370D02*
X249016D01*
Y311024D01*
X235236Y289370D02*
Y295276D01*
X231693Y305118D02*
X235236D01*
X231693Y295276D02*
Y305118D01*
Y295276D02*
X235236D01*
X212697Y295669D02*
X218406D01*
X212697Y287008D02*
X218406D01*
Y295669D01*
X212697Y287008D02*
Y295669D01*
X337795Y372843D02*
Y386228D01*
X344882Y372843D02*
Y386228D01*
X337795Y372843D02*
X344882D01*
X337795Y386228D02*
X344882D01*
X283662Y372843D02*
Y386228D01*
X290748Y372843D02*
Y386228D01*
X283662Y372843D02*
X290748D01*
X283662Y386228D02*
X290748D01*
X294291Y484351D02*
X335236D01*
X294291Y521358D02*
X335236D01*
X294291Y484351D02*
Y521358D01*
X335236Y484351D02*
Y521358D01*
M02*
