G04*
G04 #@! TF.GenerationSoftware,Altium Limited,Altium Designer,18.1.7 (191)*
G04*
G04 Layer_Color=8388736*
%FSLAX25Y25*%
%MOIN*%
G70*
G01*
G75*
%ADD27R,0.10642X0.13398*%
%ADD28R,0.05131X0.07493*%
%ADD29R,0.07493X0.05131*%
%ADD30R,0.04737X0.05918*%
%ADD31R,0.05328X0.03162*%
%ADD32R,0.13792X0.10249*%
%ADD33R,0.04737X0.10249*%
%ADD34R,0.10642X0.10642*%
%ADD35R,0.05918X0.04737*%
%ADD36R,0.15367X0.07493*%
%ADD37R,0.06312X0.05131*%
%ADD38R,0.04934X0.13398*%
%ADD39R,0.41942X0.33477*%
%ADD40C,0.34265*%
%ADD41C,0.20485*%
%ADD42R,0.06706X0.06706*%
%ADD43C,0.06706*%
%ADD44C,0.06800*%
%ADD45C,0.05800*%
D27*
X345882Y428312D02*
D03*
X311992D02*
D03*
D28*
X279921Y155512D02*
D03*
X269291D02*
D03*
D29*
X62008Y191339D02*
D03*
Y180709D02*
D03*
X341339Y374220D02*
D03*
Y384851D02*
D03*
X287205Y374220D02*
D03*
Y384851D02*
D03*
D30*
X189173Y539806D02*
D03*
X182874D02*
D03*
D31*
X200630Y547244D02*
D03*
Y539764D02*
D03*
X209488Y543504D02*
D03*
D32*
X314764Y359154D02*
D03*
D33*
X305709Y381988D02*
D03*
X314764D02*
D03*
X323819D02*
D03*
D34*
X349410Y473917D02*
D03*
X367126D02*
D03*
D35*
X215551Y228150D02*
D03*
Y234449D02*
D03*
Y256102D02*
D03*
Y249803D02*
D03*
X246063Y102165D02*
D03*
Y108465D02*
D03*
Y129134D02*
D03*
Y122835D02*
D03*
X215551Y311811D02*
D03*
Y318110D02*
D03*
D36*
X242126Y288583D02*
D03*
Y311811D02*
D03*
D37*
X215551Y294291D02*
D03*
Y288386D02*
D03*
D38*
X301378Y473917D02*
D03*
X308071D02*
D03*
X314764D02*
D03*
X321457D02*
D03*
X328150D02*
D03*
D39*
X314764Y511122D02*
D03*
D40*
X27559Y31496D02*
D03*
Y295275D02*
D03*
Y559055D02*
D03*
X366071Y31496D02*
D03*
Y295433D02*
D03*
Y559055D02*
D03*
D41*
X51339Y417540D02*
D03*
Y352146D02*
D03*
X231142Y417540D02*
D03*
Y352146D02*
D03*
X51339Y460414D02*
D03*
Y525808D02*
D03*
X231142Y460414D02*
D03*
Y525808D02*
D03*
D42*
X200630Y563976D02*
D03*
X106496Y198819D02*
D03*
X275591Y512303D02*
D03*
Y467028D02*
D03*
X275512Y563976D02*
D03*
X110433D02*
D03*
X159291Y443898D02*
D03*
X89567Y434055D02*
D03*
D43*
X210630Y563976D02*
D03*
X116496Y198819D02*
D03*
X126496D02*
D03*
X136496D02*
D03*
X146496D02*
D03*
X255905Y512303D02*
D03*
Y467028D02*
D03*
X285512Y563976D02*
D03*
X160433D02*
D03*
X150433D02*
D03*
X140433D02*
D03*
X130433D02*
D03*
X120433D02*
D03*
X169291Y443898D02*
D03*
X99567Y434055D02*
D03*
D44*
X269685Y196221D02*
D03*
Y206221D02*
D03*
Y216220D02*
D03*
Y226220D02*
D03*
Y236221D02*
D03*
Y246220D02*
D03*
Y256221D02*
D03*
X269528Y139764D02*
D03*
Y129764D02*
D03*
Y119764D02*
D03*
Y109764D02*
D03*
X328898D02*
D03*
Y119764D02*
D03*
Y129764D02*
D03*
Y139764D02*
D03*
X289213D02*
D03*
X299213D02*
D03*
X309213D02*
D03*
X321654Y66929D02*
D03*
X311654D02*
D03*
X301654D02*
D03*
X291654D02*
D03*
X281654D02*
D03*
X271654D02*
D03*
X106496Y168111D02*
D03*
X116496D02*
D03*
X126496D02*
D03*
X136496D02*
D03*
X146496D02*
D03*
X61851Y164173D02*
D03*
X71851D02*
D03*
Y154174D02*
D03*
Y144174D02*
D03*
Y134174D02*
D03*
Y124173D02*
D03*
Y114173D02*
D03*
Y104174D02*
D03*
Y94174D02*
D03*
Y84174D02*
D03*
Y74173D02*
D03*
Y64174D02*
D03*
Y54173D02*
D03*
Y34174D02*
D03*
X61851Y154174D02*
D03*
Y144174D02*
D03*
Y134174D02*
D03*
Y124173D02*
D03*
Y114173D02*
D03*
Y104174D02*
D03*
Y94174D02*
D03*
Y84174D02*
D03*
Y74173D02*
D03*
Y64174D02*
D03*
Y54173D02*
D03*
Y44173D02*
D03*
X71851D02*
D03*
X81851D02*
D03*
X91851D02*
D03*
X101851D02*
D03*
X111851D02*
D03*
X121851D02*
D03*
X131851D02*
D03*
X141851D02*
D03*
X151851D02*
D03*
X161851D02*
D03*
X171851D02*
D03*
X181851D02*
D03*
X191851D02*
D03*
X181851Y54173D02*
D03*
Y64174D02*
D03*
Y74173D02*
D03*
Y84174D02*
D03*
Y94174D02*
D03*
Y104174D02*
D03*
Y114173D02*
D03*
Y124173D02*
D03*
Y134174D02*
D03*
Y144174D02*
D03*
Y154174D02*
D03*
X191851Y54173D02*
D03*
Y64174D02*
D03*
Y74173D02*
D03*
Y84174D02*
D03*
Y94174D02*
D03*
Y104174D02*
D03*
Y114173D02*
D03*
Y124173D02*
D03*
Y134174D02*
D03*
Y144174D02*
D03*
Y154174D02*
D03*
X181851Y34174D02*
D03*
Y164173D02*
D03*
X191851D02*
D03*
X171851Y34174D02*
D03*
X161851D02*
D03*
X151851D02*
D03*
X141851D02*
D03*
X131851D02*
D03*
X121851D02*
D03*
X111851D02*
D03*
X101851D02*
D03*
X91851D02*
D03*
X81851D02*
D03*
X71693Y295433D02*
D03*
Y285433D02*
D03*
Y275433D02*
D03*
Y265433D02*
D03*
Y255433D02*
D03*
D45*
X14764Y31496D02*
D03*
X27559Y18701D02*
D03*
Y44291D02*
D03*
X40354Y31496D02*
D03*
X27559Y282480D02*
D03*
X14764Y295275D02*
D03*
X27559Y308071D02*
D03*
X40354Y295275D02*
D03*
X14764Y559055D02*
D03*
X27559Y546260D02*
D03*
Y571850D02*
D03*
X40354Y559055D02*
D03*
X353276Y31496D02*
D03*
X366071Y18701D02*
D03*
Y44291D02*
D03*
X378866Y31496D02*
D03*
X353276Y295433D02*
D03*
X366071Y282638D02*
D03*
X378866Y295433D02*
D03*
X272199Y400591D02*
D03*
X307087Y456693D02*
D03*
X314764Y542637D02*
D03*
X366071Y308228D02*
D03*
X364173Y400591D02*
D03*
X353276Y559055D02*
D03*
X366071Y546260D02*
D03*
Y571850D02*
D03*
X378866Y559055D02*
D03*
X209488Y503110D02*
D03*
X291654Y48806D02*
D03*
X245924Y115157D02*
D03*
X269685Y327756D02*
D03*
M02*
