M48
;Layer_Color=9474304
;FILE_FORMAT=2:5
INCH,TZ
;TYPE=PLATED
T1F00S00C0.02800
T2F00S00C0.03000
T3F00S00C0.03543
T4F00S00C0.13780
T5F00S00C0.17717
%
T01
X14764Y31496
X27559Y18701
Y44291
X40354Y31496
X291654Y48806
X353276Y31496
X366071Y18701
Y44291
X378866Y31496
X245924Y115157
X27559Y282480
X14764Y295275
X40354
X27559Y308071
X269685Y327756
X353276Y295433
X366071Y282638
X378866Y295433
X366071Y308228
X364173Y400591
X307087Y456693
X272199Y400591
X209488Y503110
X27559Y546260
X14764Y559055
X27559Y571850
X40354Y559055
X314764Y542637
X353276Y559055
X366071Y546260
Y571850
X378866Y559055
T02
X71851Y34174
Y44173
Y54173
X61851
Y44173
X81851
X91851
X101851
X111851
X121851
Y34174
X111851
X101851
X91851
X81851
X131851
Y44173
X141851
X151851
X161851
X171851
X181851
X191851
Y54173
X181851
Y34174
X171851
X161851
X151851
X141851
X281654Y66929
X291654
X301654
X311654
X321654
X328898Y109764
Y119764
Y129764
Y139764
X309213
X299213
X289213
X269528
Y129764
Y119764
Y109764
X271654Y66929
X191851Y64174
X181851
Y74173
Y84174
Y94174
Y104174
Y114173
Y124173
Y134174
Y144174
Y154174
X191851
Y144174
Y134174
Y124173
Y114173
Y104174
Y94174
Y84174
Y74173
Y164173
X181851
X146496Y168111
X136496
X126496
X269685Y196221
Y206221
X116496Y168111
X106496
X71851Y164173
X61851
Y154174
X71851
Y144174
Y134174
Y124173
Y114173
Y104174
Y94174
Y84174
Y74173
Y64174
X61851
Y74173
Y84174
Y94174
Y104174
Y114173
Y124173
Y134174
Y144174
X71693Y255433
Y265433
Y275433
Y285433
Y295433
X269685Y256221
Y246220
Y236221
Y226220
Y216220
T03
X126496Y198819
X136496
X146496
X116496
X106496
X159291Y443898
X169291
X255905Y467028
X275591
Y512303
X255905
X99567Y434055
X89567
X110433Y563976
X120433
X130433
X140433
X150433
X160433
X200630Y563976
X210630
X275512Y563976
X285512
T04
X51339Y352146
X231142
Y417540
Y460414
X51339
Y417540
Y525808
X231142
T05
X27559Y31496
X366071
X27559Y295275
X366071Y295433
X27559Y559055
X366071
M30
