G04*
G04 #@! TF.GenerationSoftware,Altium Limited,Altium Designer,18.1.7 (191)*
G04*
G04 Layer_Color=8421504*
%FSLAX25Y25*%
%MOIN*%
G70*
G01*
G75*
%ADD14R,0.09843X0.12598*%
%ADD15R,0.04331X0.06693*%
%ADD16R,0.06693X0.04331*%
%ADD17R,0.03937X0.05118*%
%ADD18R,0.04528X0.02362*%
%ADD19R,0.12992X0.09449*%
%ADD20R,0.03937X0.09449*%
%ADD21R,0.09843X0.09843*%
%ADD22R,0.05118X0.03937*%
%ADD23R,0.14567X0.06693*%
%ADD24R,0.05512X0.04331*%
%ADD25R,0.04134X0.12598*%
%ADD26R,0.41142X0.32677*%
D14*
X345882Y428312D02*
D03*
X311992D02*
D03*
D15*
X279921Y155512D02*
D03*
X269291D02*
D03*
D16*
X62008Y191339D02*
D03*
Y180709D02*
D03*
X341339Y374220D02*
D03*
Y384851D02*
D03*
X287205Y374220D02*
D03*
Y384851D02*
D03*
D17*
X189173Y539806D02*
D03*
X182874D02*
D03*
D18*
X200630Y547244D02*
D03*
Y539764D02*
D03*
X209488Y543504D02*
D03*
D19*
X314764Y359154D02*
D03*
D20*
X305709Y381988D02*
D03*
X314764D02*
D03*
X323819D02*
D03*
D21*
X349410Y473917D02*
D03*
X367126D02*
D03*
D22*
X215551Y228150D02*
D03*
Y234449D02*
D03*
Y256102D02*
D03*
Y249803D02*
D03*
X246063Y102165D02*
D03*
Y108465D02*
D03*
Y129134D02*
D03*
Y122835D02*
D03*
X215551Y311811D02*
D03*
Y318110D02*
D03*
D23*
X242126Y288583D02*
D03*
Y311811D02*
D03*
D24*
X215551Y294291D02*
D03*
Y288386D02*
D03*
D25*
X301378Y473917D02*
D03*
X308071D02*
D03*
X314764D02*
D03*
X321457D02*
D03*
X328150D02*
D03*
D26*
X314764Y511122D02*
D03*
M02*
