G04*
G04 #@! TF.GenerationSoftware,Altium Limited,Altium Designer,18.0.12 (696)*
G04*
G04 Layer_Color=32896*
%FSLAX25Y25*%
%MOIN*%
G70*
G01*
G75*
%ADD11C,0.00000*%
%ADD12C,0.00787*%
%ADD14C,0.00600*%
%ADD16C,0.00500*%
G36*
X106850Y472360D02*
Y472359D01*
Y472358D01*
X70611D01*
Y472359D01*
X70607D01*
Y472360D01*
X70600D01*
Y491094D01*
X106850D01*
Y472360D01*
D02*
G37*
G36*
Y458942D02*
X70593D01*
Y472354D01*
X106850D01*
Y458942D01*
D02*
G37*
G36*
X114978Y421469D02*
X120895D01*
Y419983D01*
X114978D01*
Y416539D01*
X120896D01*
Y415062D01*
X114978D01*
Y411616D01*
X120883D01*
Y411615D01*
X120885D01*
Y411610D01*
X120894D01*
Y410141D01*
X114978D01*
Y408300D01*
X112000D01*
Y410141D01*
X106118D01*
Y411610D01*
Y411615D01*
Y411616D01*
X112000D01*
Y415062D01*
X106118D01*
Y416539D01*
X112000D01*
Y419983D01*
X106118D01*
Y421469D01*
X112000D01*
Y423419D01*
X114978D01*
Y421469D01*
D02*
G37*
D11*
X75200Y223682D02*
X75551Y222833D01*
X76400Y222482D01*
X77249Y222833D01*
X77600Y223682D01*
X75200D02*
X75551Y222833D01*
X76400Y222482D01*
X77249Y222833D01*
X77600Y223682D01*
X90000Y411700D02*
X89152Y411348D01*
X88800Y410500D01*
X89152Y409652D01*
X90000Y409300D01*
Y411700D02*
X89152Y411348D01*
X88800Y410500D01*
X89152Y409652D01*
X90000Y409300D01*
X32938Y396000D02*
X33289Y395151D01*
X34138Y394800D01*
X34986Y395151D01*
X35338Y396000D01*
X32938D02*
X33289Y395151D01*
X34138Y394800D01*
X34986Y395151D01*
X35338Y396000D01*
X36938Y391000D02*
X39338D01*
Y389000D02*
Y391000D01*
X36938Y389000D02*
X39338D01*
X28938Y385300D02*
X31338D01*
X28938D02*
Y387200D01*
X31338D01*
Y385300D02*
Y387200D01*
Y384000D02*
Y385300D01*
X28938Y392800D02*
X31338D01*
X28938D02*
Y394700D01*
X31338D01*
Y387200D02*
Y392800D01*
Y394700D01*
Y396000D01*
X32938D01*
X35338D01*
X36938D01*
Y391000D02*
Y396000D01*
Y389000D02*
Y391000D01*
Y384000D02*
Y389000D01*
X31338Y384000D02*
X36938D01*
Y391000D02*
X39338D01*
Y389000D02*
Y391000D01*
X36938Y389000D02*
X39338D01*
X28938Y385300D02*
X31338D01*
X28938D02*
Y387200D01*
X31338D01*
Y385300D02*
Y387200D01*
Y384000D02*
Y385300D01*
X28938Y392800D02*
X31338D01*
X28938D02*
Y394700D01*
X31338D01*
Y387200D02*
Y392800D01*
Y394700D01*
Y396000D01*
X32938D01*
X35338D01*
X36938D01*
Y391000D02*
Y396000D01*
Y389000D02*
Y391000D01*
Y384000D02*
Y389000D01*
X31338Y384000D02*
X36938D01*
D12*
X117347Y408426D02*
X116559D01*
X117347D01*
X116559D01*
X117347D01*
D14*
X84300Y221482D02*
X85900D01*
X84300Y216482D02*
X85900D01*
X84300Y211482D02*
X85900D01*
X84300Y206482D02*
X85900D01*
X84300Y201482D02*
X85900D01*
X84300Y196482D02*
X85900D01*
X84300Y191482D02*
X85900D01*
X84300Y186482D02*
X85900D01*
X67000D02*
X68600D01*
X67000Y191482D02*
X68600D01*
X67000Y196482D02*
X68600D01*
X67000Y201482D02*
X68600D01*
X67000Y206482D02*
X68600D01*
X67000Y211482D02*
X68600D01*
X67000Y216482D02*
X68600D01*
X67000Y221482D02*
X68600D01*
Y184282D02*
X84300D01*
X68600D02*
Y223682D01*
X75200D01*
X77600D01*
X84300D01*
Y184282D02*
Y223682D01*
Y221482D02*
X85900D01*
X84300Y216482D02*
X85900D01*
X84300Y211482D02*
X85900D01*
X84300Y206482D02*
X85900D01*
X84300Y201482D02*
X85900D01*
X84300Y196482D02*
X85900D01*
X84300Y191482D02*
X85900D01*
X84300Y186482D02*
X85900D01*
X67000D02*
X68600D01*
X67000Y191482D02*
X68600D01*
X67000Y196482D02*
X68600D01*
X67000Y201482D02*
X68600D01*
X67000Y206482D02*
X68600D01*
X67000Y211482D02*
X68600D01*
X67000Y216482D02*
X68600D01*
X67000Y221482D02*
X68600D01*
Y184282D02*
X84300D01*
X68600D02*
Y223682D01*
X75200D01*
X77600D01*
X84300D01*
Y184282D02*
Y223682D01*
X70000Y419400D02*
X90000D01*
Y411700D02*
Y419400D01*
Y409300D02*
Y411700D01*
Y401600D02*
Y409300D01*
X70000Y401600D02*
X90000D01*
X70000D02*
Y419400D01*
X89500Y397500D02*
Y401600D01*
X88400Y397500D02*
X89500D01*
X88400D02*
Y401600D01*
X89500D01*
X87000Y397500D02*
Y401600D01*
X85800Y397500D02*
X87000D01*
X85800D02*
Y401600D01*
X87000D01*
X84400Y397500D02*
Y401600D01*
X83200Y397500D02*
X84400D01*
X83200D02*
Y401600D01*
X84400D01*
X81900Y397500D02*
Y401600D01*
X80700Y397500D02*
X81900D01*
X80700D02*
Y401600D01*
X81900D01*
X79300Y397500D02*
Y401600D01*
X78100Y397500D02*
X79300D01*
X78100D02*
Y401600D01*
X79300D01*
X76800Y397500D02*
Y401600D01*
X75600Y397500D02*
X76800D01*
X75600D02*
Y401600D01*
X76800D01*
X74200Y397500D02*
Y401600D01*
X73000Y397500D02*
X74200D01*
X73000D02*
Y401600D01*
X74200D01*
X71600Y397500D02*
Y401600D01*
X70500Y397500D02*
X71600D01*
X70500D02*
Y401600D01*
X71600D01*
X70500Y419400D02*
Y423500D01*
X71600D01*
Y419400D02*
Y423500D01*
X70500Y419400D02*
X71600D01*
X73000D02*
Y423500D01*
X74200D01*
Y419400D02*
Y423500D01*
X73000Y419400D02*
X74200D01*
X75600D02*
Y423500D01*
X76800D01*
Y419400D02*
Y423500D01*
X75600Y419400D02*
X76800D01*
X78100D02*
Y423500D01*
X79300D01*
Y419400D02*
Y423500D01*
X78100Y419400D02*
X79300D01*
X80700D02*
Y423500D01*
X81900D01*
Y419400D02*
Y423500D01*
X80700Y419400D02*
X81900D01*
X83200D02*
Y423500D01*
X84400D01*
Y419400D02*
Y423500D01*
X83200Y419400D02*
X84400D01*
X85800D02*
Y423500D01*
X87000D01*
Y419400D02*
Y423500D01*
X85800Y419400D02*
X87000D01*
X88400D02*
Y423500D01*
X89500D01*
Y419400D02*
Y423500D01*
X88400Y419400D02*
X89500D01*
X70000D02*
X90000D01*
Y411700D02*
Y419400D01*
Y409300D02*
Y411700D01*
Y401600D02*
Y409300D01*
X70000Y401600D02*
X90000D01*
X70000D02*
Y419400D01*
X89500Y397500D02*
Y401600D01*
X88400Y397500D02*
X89500D01*
X88400D02*
Y401600D01*
X89500D01*
X87000Y397500D02*
Y401600D01*
X85800Y397500D02*
X87000D01*
X85800D02*
Y401600D01*
X87000D01*
X84400Y397500D02*
Y401600D01*
X83200Y397500D02*
X84400D01*
X83200D02*
Y401600D01*
X84400D01*
X81900Y397500D02*
Y401600D01*
X80700Y397500D02*
X81900D01*
X80700D02*
Y401600D01*
X81900D01*
X79300Y397500D02*
Y401600D01*
X78100Y397500D02*
X79300D01*
X78100D02*
Y401600D01*
X79300D01*
X76800Y397500D02*
Y401600D01*
X75600Y397500D02*
X76800D01*
X75600D02*
Y401600D01*
X76800D01*
X74200Y397500D02*
Y401600D01*
X73000Y397500D02*
X74200D01*
X73000D02*
Y401600D01*
X74200D01*
X71600Y397500D02*
Y401600D01*
X70500Y397500D02*
X71600D01*
X70500D02*
Y401600D01*
X71600D01*
X70500Y419400D02*
Y423500D01*
X71600D01*
Y419400D02*
Y423500D01*
X70500Y419400D02*
X71600D01*
X73000D02*
Y423500D01*
X74200D01*
Y419400D02*
Y423500D01*
X73000Y419400D02*
X74200D01*
X75600D02*
Y423500D01*
X76800D01*
Y419400D02*
Y423500D01*
X75600Y419400D02*
X76800D01*
X78100D02*
Y423500D01*
X79300D01*
Y419400D02*
Y423500D01*
X78100Y419400D02*
X79300D01*
X80700D02*
Y423500D01*
X81900D01*
Y419400D02*
Y423500D01*
X80700Y419400D02*
X81900D01*
X83200D02*
Y423500D01*
X84400D01*
Y419400D02*
Y423500D01*
X83200Y419400D02*
X84400D01*
X85800D02*
Y423500D01*
X87000D01*
Y419400D02*
Y423500D01*
X85800Y419400D02*
X87000D01*
X88400D02*
Y423500D01*
X89500D01*
Y419400D02*
Y423500D01*
X88400Y419400D02*
X89500D01*
D16*
X181358Y421685D02*
Y432315D01*
X177815Y435858D02*
X181358Y432315D01*
X163642Y435858D02*
X177815D01*
X163642Y418142D02*
Y435858D01*
Y418142D02*
X177815D01*
X181358Y421685D01*
Y432315D01*
X177815Y435858D02*
X181358Y432315D01*
X163642Y435858D02*
X177815D01*
X163642Y418142D02*
Y435858D01*
Y418142D02*
X177815D01*
X181358Y421685D01*
Y448185D02*
Y458815D01*
X177815Y462358D02*
X181358Y458815D01*
X163642Y462358D02*
X177815D01*
X163642Y444642D02*
Y462358D01*
Y444642D02*
X177815D01*
X181358Y448185D01*
Y458815D01*
X177815Y462358D02*
X181358Y458815D01*
X163642Y462358D02*
X177815D01*
X163642Y444642D02*
Y462358D01*
Y444642D02*
X177815D01*
X181358Y448185D01*
X57165Y501882D02*
X112835D01*
Y443024D02*
Y501882D01*
X57165Y443024D02*
X112835D01*
X57165D02*
Y501882D01*
X112835D01*
Y443024D02*
Y501882D01*
X57165Y443024D02*
X112835D01*
X57165D02*
Y501882D01*
X107594Y405957D02*
X119406D01*
X107594D02*
Y425643D01*
X119406D01*
Y405957D02*
Y425643D01*
X107594Y405957D02*
X119406D01*
X107594D02*
Y425643D01*
X119406D01*
Y405957D02*
Y425643D01*
M02*
