G04*
G04 #@! TF.GenerationSoftware,Altium Limited,Altium Designer,18.0.12 (696)*
G04*
G04 Layer_Color=65535*
%FSLAX25Y25*%
%MOIN*%
G70*
G01*
G75*
%ADD10C,0.00984*%
%ADD11C,0.00000*%
%ADD12C,0.00787*%
%ADD13C,0.02362*%
%ADD14C,0.00600*%
%ADD15C,0.01000*%
%ADD16C,0.00500*%
%ADD17C,0.00800*%
%ADD18C,0.00591*%
G36*
X55100Y30400D02*
Y29600D01*
Y28800D01*
X54300D01*
Y28000D01*
Y27200D01*
Y26400D01*
X53500D01*
Y25600D01*
Y24800D01*
Y24000D01*
X52700D01*
Y23200D01*
Y22400D01*
X51900D01*
Y21600D01*
Y20800D01*
X51100D01*
Y20000D01*
X50300D01*
Y19200D01*
X49500D01*
Y18400D01*
X47900D01*
Y17600D01*
X36700D01*
Y18400D01*
X35900D01*
Y19200D01*
Y20000D01*
X35100D01*
Y20800D01*
Y21600D01*
Y22400D01*
Y23200D01*
X35900D01*
Y24000D01*
Y24800D01*
X36700D01*
Y25600D01*
Y26400D01*
Y27200D01*
X37500D01*
Y28000D01*
Y28800D01*
Y29600D01*
X38300D01*
Y30400D01*
Y31200D01*
X42300D01*
Y30400D01*
Y29600D01*
X41500D01*
Y28800D01*
Y28000D01*
X40700D01*
Y27200D01*
Y26400D01*
Y25600D01*
X39900D01*
Y24800D01*
Y24000D01*
X39100D01*
Y23200D01*
Y22400D01*
Y21600D01*
X39900D01*
Y20800D01*
X47100D01*
Y21600D01*
X47900D01*
Y22400D01*
X48700D01*
Y23200D01*
Y24000D01*
X49500D01*
Y24800D01*
Y25600D01*
Y26400D01*
X50300D01*
Y27200D01*
Y28000D01*
Y28800D01*
Y29600D01*
X51100D01*
Y30400D01*
Y31200D01*
X55100D01*
Y30400D01*
D02*
G37*
G36*
X113500D02*
X112700D01*
Y29600D01*
X111900D01*
Y28800D01*
X111100D01*
Y28000D01*
X105500D01*
Y27200D01*
Y26400D01*
X104700D01*
Y25600D01*
Y24800D01*
Y24000D01*
X103900D01*
Y23200D01*
Y22400D01*
Y21600D01*
X103100D01*
Y20800D01*
Y20000D01*
Y19200D01*
X102300D01*
Y18400D01*
Y17600D01*
X98300D01*
Y18400D01*
Y19200D01*
X99100D01*
Y20000D01*
Y20800D01*
Y21600D01*
X99900D01*
Y22400D01*
Y23200D01*
Y24000D01*
X100700D01*
Y24800D01*
Y25600D01*
X101500D01*
Y26400D01*
Y27200D01*
Y28000D01*
X95900D01*
Y28800D01*
X96700D01*
Y29600D01*
X97500D01*
Y30400D01*
X98300D01*
Y31200D01*
X113500D01*
Y30400D01*
D02*
G37*
G36*
X73500D02*
X72700D01*
Y29600D01*
X71900D01*
Y28800D01*
X71100D01*
Y28000D01*
X65500D01*
Y27200D01*
Y26400D01*
X64700D01*
Y25600D01*
Y24800D01*
Y24000D01*
X63900D01*
Y23200D01*
Y22400D01*
Y21600D01*
X63100D01*
Y20800D01*
Y20000D01*
Y19200D01*
X62300D01*
Y18400D01*
Y17600D01*
X58300D01*
Y18400D01*
Y19200D01*
X59100D01*
Y20000D01*
Y20800D01*
Y21600D01*
X59900D01*
Y22400D01*
Y23200D01*
Y24000D01*
X60700D01*
Y24800D01*
Y25600D01*
X61500D01*
Y26400D01*
Y27200D01*
Y28000D01*
X55900D01*
Y28800D01*
X56700D01*
Y29600D01*
X57500D01*
Y30400D01*
X58300D01*
Y31200D01*
X73500D01*
Y30400D01*
D02*
G37*
G36*
X93500Y45600D02*
Y44800D01*
Y44000D01*
Y43200D01*
Y42400D01*
Y41600D01*
X92700D01*
Y40800D01*
Y40000D01*
Y39200D01*
Y38400D01*
Y37600D01*
X91900D01*
Y36800D01*
Y36000D01*
Y35200D01*
X113500D01*
Y34400D01*
Y33600D01*
X91100D01*
Y32800D01*
Y32000D01*
Y31200D01*
Y30400D01*
Y29600D01*
X90300D01*
Y28800D01*
Y28000D01*
Y27200D01*
Y26400D01*
Y25600D01*
Y24800D01*
Y24000D01*
X89500D01*
Y23200D01*
Y22400D01*
Y21600D01*
Y20800D01*
Y20000D01*
X88700D01*
Y19200D01*
Y18400D01*
Y17600D01*
Y16800D01*
X87900D01*
Y16000D01*
Y15200D01*
X111100D01*
Y14400D01*
Y13600D01*
X87100D01*
Y12800D01*
Y12000D01*
Y11200D01*
X86300D01*
Y12000D01*
Y12800D01*
X85500D01*
Y13600D01*
X68700D01*
Y12800D01*
X67900D01*
Y12000D01*
X66300D01*
Y11200D01*
X65500D01*
Y10400D01*
X64700D01*
Y9600D01*
X63100D01*
Y8800D01*
X62300D01*
Y8000D01*
X61500D01*
Y7200D01*
X60700D01*
Y6400D01*
X59900D01*
Y5600D01*
X58300D01*
Y4800D01*
X57500D01*
Y4000D01*
X56700D01*
Y3200D01*
X55100D01*
Y2400D01*
X54300D01*
Y1600D01*
X53500D01*
Y800D01*
X51900D01*
Y1600D01*
X52700D01*
Y2400D01*
X53500D01*
Y3200D01*
X54300D01*
Y4000D01*
X55100D01*
Y4800D01*
X55900D01*
Y5600D01*
X56700D01*
Y6400D01*
X57500D01*
Y7200D01*
X58300D01*
Y8000D01*
Y8800D01*
X59100D01*
Y9600D01*
X59900D01*
Y10400D01*
X60700D01*
Y11200D01*
X61500D01*
Y12000D01*
X62300D01*
Y12800D01*
X63100D01*
Y13600D01*
X33500D01*
Y14400D01*
Y15200D01*
X64700D01*
Y16000D01*
X65500D01*
Y16800D01*
X66300D01*
Y17600D01*
X67100D01*
Y18400D01*
X67900D01*
Y19200D01*
X68700D01*
Y20000D01*
X69500D01*
Y20800D01*
X70300D01*
Y21600D01*
X71100D01*
Y22400D01*
X71900D01*
Y23200D01*
X72700D01*
Y24000D01*
X73500D01*
Y24800D01*
Y25600D01*
X74300D01*
Y26400D01*
X75100D01*
Y27200D01*
X75900D01*
Y28000D01*
X76700D01*
Y28800D01*
X77500D01*
Y29600D01*
X78300D01*
Y30400D01*
X79100D01*
Y31200D01*
X79900D01*
Y32000D01*
X80700D01*
Y32800D01*
X81500D01*
Y33600D01*
X39100D01*
Y34400D01*
Y35200D01*
X83900D01*
Y36000D01*
X84700D01*
Y36800D01*
Y37600D01*
X85500D01*
Y38400D01*
X86300D01*
Y39200D01*
X87100D01*
Y40000D01*
X87900D01*
Y40800D01*
X88700D01*
Y41600D01*
X89500D01*
Y42400D01*
X90300D01*
Y43200D01*
X91100D01*
Y44000D01*
X91900D01*
Y44800D01*
Y45600D01*
X92700D01*
Y46400D01*
X93500D01*
Y45600D01*
D02*
G37*
G36*
X109500Y8800D02*
X110300D01*
Y4000D01*
X109500D01*
Y3200D01*
X108700D01*
Y2400D01*
X104700D01*
Y3200D01*
X107100D01*
Y4000D01*
X108700D01*
Y4800D01*
X104700D01*
Y5600D01*
X103900D01*
Y8800D01*
X104700D01*
Y9600D01*
X109500D01*
Y8800D01*
D02*
G37*
G36*
X100700Y3200D02*
X103100D01*
Y2400D01*
X96700D01*
Y3200D01*
X99100D01*
Y8000D01*
X96700D01*
Y8800D01*
X98300D01*
Y9600D01*
X100700D01*
Y3200D01*
D02*
G37*
G36*
X87900Y8800D02*
X88700D01*
Y8000D01*
Y7200D01*
Y6400D01*
X87900D01*
Y5600D01*
X87100D01*
Y4800D01*
X86300D01*
Y4000D01*
X85500D01*
Y3200D01*
X88700D01*
Y2400D01*
X83100D01*
Y3200D01*
Y4000D01*
X83900D01*
Y4800D01*
X84700D01*
Y5600D01*
X85500D01*
Y6400D01*
X86300D01*
Y7200D01*
X87100D01*
Y8000D01*
X86300D01*
Y8800D01*
X85500D01*
Y8000D01*
X84700D01*
Y7200D01*
X83100D01*
Y8000D01*
Y8800D01*
X83900D01*
Y9600D01*
X87900D01*
Y8800D01*
D02*
G37*
G36*
X80700D02*
Y8000D01*
X81500D01*
Y7200D01*
Y6400D01*
Y5600D01*
Y4800D01*
Y4000D01*
X80700D01*
Y3200D01*
Y2400D01*
X75900D01*
Y3200D01*
Y4000D01*
X75100D01*
Y4800D01*
Y5600D01*
Y6400D01*
Y7200D01*
Y8000D01*
X75900D01*
Y8800D01*
Y9600D01*
X80700D01*
Y8800D01*
D02*
G37*
G36*
X95900Y10400D02*
Y9600D01*
X95100D01*
Y8800D01*
Y8000D01*
Y7200D01*
X94300D01*
Y6400D01*
Y5600D01*
X93500D01*
Y4800D01*
Y4000D01*
X92700D01*
Y3200D01*
Y2400D01*
X91900D01*
Y1600D01*
Y800D01*
X90300D01*
Y1600D01*
Y2400D01*
X91100D01*
Y3200D01*
Y4000D01*
Y4800D01*
X91900D01*
Y5600D01*
Y6400D01*
X92700D01*
Y7200D01*
Y8000D01*
X93500D01*
Y8800D01*
Y9600D01*
X94300D01*
Y10400D01*
Y11200D01*
X95900D01*
Y10400D01*
D02*
G37*
%LPC*%
G36*
X86300Y31200D02*
X85500D01*
Y30400D01*
X84700D01*
Y29600D01*
X83900D01*
Y28800D01*
X84700D01*
Y28000D01*
X85500D01*
Y28800D01*
X86300D01*
Y29600D01*
Y30400D01*
Y31200D01*
D02*
G37*
G36*
X83900Y28800D02*
X83100D01*
Y28000D01*
X83900D01*
Y28800D01*
D02*
G37*
G36*
X83100Y28000D02*
X82300D01*
Y27200D01*
X83100D01*
Y28000D01*
D02*
G37*
G36*
X82300Y27200D02*
X81500D01*
Y26400D01*
X82300D01*
Y27200D01*
D02*
G37*
G36*
X81500Y26400D02*
X80700D01*
Y25600D01*
X81500D01*
Y26400D01*
D02*
G37*
G36*
X83900Y24800D02*
X83100D01*
Y24000D01*
X81500D01*
Y23200D01*
X80700D01*
Y22400D01*
X79100D01*
Y21600D01*
X78300D01*
Y20800D01*
X77500D01*
Y20000D01*
X76700D01*
Y19200D01*
X75900D01*
Y18400D01*
X74300D01*
Y17600D01*
X73500D01*
Y16800D01*
X72700D01*
Y16000D01*
X71900D01*
Y15200D01*
X85500D01*
Y16000D01*
Y16800D01*
Y17600D01*
X84700D01*
Y18400D01*
Y19200D01*
Y20000D01*
Y20800D01*
Y21600D01*
Y22400D01*
Y23200D01*
X83900D01*
Y24000D01*
Y24800D01*
D02*
G37*
G36*
X107900Y8800D02*
X106300D01*
Y8000D01*
X105500D01*
Y7200D01*
Y6400D01*
X106300D01*
Y5600D01*
X107900D01*
Y6400D01*
X108700D01*
Y7200D01*
Y8000D01*
X107900D01*
Y8800D01*
D02*
G37*
G36*
X79100D02*
X77500D01*
Y8000D01*
X76700D01*
Y7200D01*
Y6400D01*
Y5600D01*
Y4800D01*
Y4000D01*
X77500D01*
Y3200D01*
X79100D01*
Y4000D01*
X79900D01*
Y4800D01*
Y5600D01*
Y6400D01*
Y7200D01*
Y8000D01*
X79100D01*
Y8800D01*
D02*
G37*
%LPD*%
D10*
X133905Y365024D02*
X133167Y365450D01*
Y364597D01*
X133905Y365024D01*
X52268Y373378D02*
X51530Y373804D01*
Y372952D01*
X52268Y373378D01*
X37220Y439239D02*
X36482Y439666D01*
Y438813D01*
X37220Y439239D01*
X208374Y430378D02*
X207636Y430804D01*
Y429952D01*
X208374Y430378D01*
X197909Y388311D02*
X197171Y388737D01*
Y387885D01*
X197909Y388311D01*
D11*
X90000Y411700D02*
X89152Y411348D01*
X88800Y410500D01*
X89152Y409652D01*
X90000Y409300D01*
D12*
X70394Y504500D02*
X69606D01*
X70394D01*
X123252Y408426D02*
X122465D01*
X123252D01*
X9500Y370500D02*
X39500D01*
Y380500D01*
X9500D02*
X39500D01*
X9500Y370500D02*
Y380500D01*
X9389Y351500D02*
X29389D01*
X9389Y321500D02*
X29389D01*
X9389D02*
Y351500D01*
X29389Y321500D02*
Y351500D01*
Y332333D02*
Y351500D01*
X45579Y423713D02*
Y425287D01*
X42823Y423713D02*
Y425287D01*
X59378Y400713D02*
Y402287D01*
X56622Y400713D02*
Y402287D01*
X43000Y408500D02*
Y418500D01*
X63000D01*
Y408500D02*
Y418500D01*
X43000Y408500D02*
X63000D01*
X122713Y368122D02*
X124287D01*
X122713Y370878D02*
X124287D01*
X134595Y368665D02*
Y372209D01*
X137744D01*
X146405Y368665D02*
Y372209D01*
X143256D02*
X146405D01*
X147760Y350500D02*
Y360500D01*
X127760Y350500D02*
X147760D01*
X127760D02*
Y360500D01*
X147760D01*
X42823Y457213D02*
Y458787D01*
X45579Y457213D02*
Y458787D01*
X39816Y472213D02*
Y473787D01*
X37060Y472213D02*
Y473787D01*
X120878Y474713D02*
Y476287D01*
X118122Y474713D02*
Y476287D01*
X15140Y204488D02*
X25140D01*
X15140Y144488D02*
X25140D01*
X15140D02*
Y204488D01*
X25140Y144488D02*
Y204488D01*
X34378Y314213D02*
Y315787D01*
X31622Y314213D02*
Y315787D01*
X131000Y485000D02*
Y495000D01*
X151000D01*
Y485000D02*
Y495000D01*
X131000Y485000D02*
X151000D01*
X56894Y322394D02*
X106106D01*
X56894Y371606D02*
X106106D01*
Y322394D02*
Y371606D01*
X56894Y322394D02*
Y371606D01*
X23933Y435893D02*
Y436680D01*
X24720D01*
X23933Y423294D02*
Y424082D01*
Y423294D02*
X24720D01*
X36531D02*
X37319D01*
Y424082D01*
Y435893D02*
Y436680D01*
X36531D02*
X37319D01*
X147287Y462093D02*
X148862D01*
X147287Y459337D02*
X148862D01*
X135287Y462093D02*
X136862D01*
X135287Y459337D02*
X136862D01*
X19378Y399898D02*
Y401472D01*
X16622Y399898D02*
Y401472D01*
X19378Y389898D02*
Y391472D01*
X16622Y389898D02*
Y391472D01*
X27890Y290807D02*
Y304193D01*
X14110Y290807D02*
Y304193D01*
X213953Y403925D02*
Y407075D01*
X208047Y403925D02*
Y407075D01*
X205028Y440811D02*
Y449669D01*
Y440811D02*
X245972D01*
Y449669D01*
X158547Y403925D02*
Y407075D01*
X164453Y403925D02*
Y407075D01*
X191512Y388311D02*
Y414689D01*
X180488Y388311D02*
Y414689D01*
Y388311D02*
X191512D01*
X180488Y414689D02*
X191512D01*
X251898Y438630D02*
Y448276D01*
X264102Y438630D02*
Y448276D01*
Y457724D02*
Y467961D01*
X251898Y457724D02*
Y467961D01*
X253669Y436858D02*
X262331D01*
X264102Y438630D01*
X251898D02*
X253669Y436858D01*
X251898Y467961D02*
X264102D01*
D13*
X62012Y367669D02*
X61567Y368593D01*
X60568Y368821D01*
X59767Y368182D01*
Y367157D01*
X60568Y366518D01*
X61567Y366746D01*
X62012Y367669D01*
D14*
X33747Y394897D02*
X34833Y395039D01*
X35338Y396010D01*
X90000Y411700D02*
Y417900D01*
Y409300D02*
Y411700D01*
Y403100D02*
Y409300D01*
X70000Y403100D02*
Y417900D01*
X33038Y396000D02*
X35338D01*
X36938D01*
Y384000D02*
Y387700D01*
X33038Y384000D02*
X36938D01*
Y392300D02*
Y396000D01*
D15*
X0Y0D02*
X275591D01*
X0D02*
Y511811D01*
X275591Y0D02*
Y511811D01*
X0D02*
X275591D01*
X150126Y335500D02*
Y376839D01*
Y294161D02*
Y335500D01*
Y376839D02*
X268236D01*
X150126Y294161D02*
X268236D01*
Y335500D01*
Y376839D01*
X80500Y248000D02*
Y251697D01*
X59000Y248500D02*
Y255500D01*
X80500D01*
Y251697D02*
Y255500D01*
X59000Y248000D02*
X80500D01*
X59000D02*
Y248500D01*
X195106Y248000D02*
Y248500D01*
Y248000D02*
X216606D01*
Y251697D02*
Y255500D01*
X195106D02*
X216606D01*
X195106Y248500D02*
Y255500D01*
X216606Y248000D02*
Y251697D01*
X71750Y290500D02*
X109250D01*
X71750Y305500D02*
X109250D01*
Y290500D02*
Y293000D01*
Y303000D02*
Y305500D01*
X71750Y290500D02*
Y293000D01*
Y303250D02*
Y305500D01*
X217500Y425000D02*
X221000Y428500D01*
X263500D01*
X266500Y425500D01*
X263500Y388500D02*
X266500Y391500D01*
Y425500D01*
X220500Y388500D02*
X263500D01*
X217500Y391500D02*
X220500Y388500D01*
X217500Y391500D02*
Y425000D01*
D16*
X181358Y421646D02*
Y422630D01*
X177815Y418142D02*
X181358Y421646D01*
X163642Y418142D02*
X177815D01*
X163642D02*
Y422630D01*
Y431370D02*
Y435858D01*
X177815D01*
X181358Y432354D01*
Y431370D02*
Y432354D01*
Y448146D02*
Y449130D01*
X177815Y444642D02*
X181358Y448146D01*
X163642Y444642D02*
X177815D01*
X163642D02*
Y449130D01*
Y457870D02*
Y462358D01*
X177815D01*
X181358Y458854D01*
Y457870D02*
Y458854D01*
X57165Y498161D02*
Y501882D01*
X112835D01*
Y498161D02*
Y501882D01*
X77913Y443024D02*
X100354D01*
X107594Y425643D02*
X119406D01*
X107594Y405957D02*
X119406D01*
D17*
X11391Y355832D02*
X12224Y354166D01*
X13890Y352500D01*
X15556D01*
X16389Y353333D01*
Y354999D01*
X15556Y355832D01*
X14723D01*
X13890Y354999D01*
Y352500D01*
X21391Y355832D02*
Y352500D01*
X23890D01*
X23057Y354166D01*
Y354999D01*
X23890Y355832D01*
X25556D01*
X26389Y354999D01*
Y353333D01*
X25556Y352500D01*
X16389Y319832D02*
Y316500D01*
X13057Y319832D01*
X12224D01*
X11391Y318999D01*
Y317333D01*
X12224Y316500D01*
X26389Y318500D02*
Y320166D01*
Y319333D01*
X21391D01*
X22224Y318500D01*
D18*
X10500Y362748D02*
Y366684D01*
X12468D01*
X13124Y366028D01*
Y364716D01*
X12468Y364060D01*
X10500D01*
X14436Y362748D02*
X15748D01*
X15092D01*
Y366684D01*
X14436Y366028D01*
X124624Y340780D02*
X123968Y341436D01*
X122656D01*
X122000Y340780D01*
Y338156D01*
X122656Y337500D01*
X123968D01*
X124624Y338156D01*
X125936Y337500D02*
X127248D01*
X126592D01*
Y341436D01*
X125936Y340780D01*
X131183Y337500D02*
Y341436D01*
X129216Y339468D01*
X131839D01*
X92233Y392032D02*
X91577Y392688D01*
X90265D01*
X89609Y392032D01*
Y389408D01*
X90265Y388752D01*
X91577D01*
X92233Y389408D01*
X93545Y388752D02*
X94856D01*
X94200D01*
Y392688D01*
X93545Y392032D01*
X96824D02*
X97480Y392688D01*
X98792D01*
X99448Y392032D01*
Y391376D01*
X98792Y390720D01*
X98136D01*
X98792D01*
X99448Y390064D01*
Y389408D01*
X98792Y388752D01*
X97480D01*
X96824Y389408D01*
X45000Y399000D02*
Y402936D01*
X46968D01*
X47624Y402280D01*
Y400968D01*
X46968Y400312D01*
X45000D01*
X46312D02*
X47624Y399000D01*
X48936Y402280D02*
X49592Y402936D01*
X50904D01*
X51560Y402280D01*
Y401624D01*
X50904Y400968D01*
X51560Y400312D01*
Y399656D01*
X50904Y399000D01*
X49592D01*
X48936Y399656D01*
Y400312D01*
X49592Y400968D01*
X48936Y401624D01*
Y402280D01*
X49592Y400968D02*
X50904D01*
X30624Y405780D02*
X29968Y406436D01*
X28656D01*
X28000Y405780D01*
Y403156D01*
X28656Y402500D01*
X29968D01*
X30624Y403156D01*
X31936Y406436D02*
X34560D01*
Y405780D01*
X31936Y403156D01*
Y402500D01*
X52500Y420000D02*
Y423936D01*
X54468D01*
X55124Y423280D01*
Y421968D01*
X54468Y421312D01*
X52500D01*
X59060Y423936D02*
X57748Y423280D01*
X56436Y421968D01*
Y420656D01*
X57092Y420000D01*
X58404D01*
X59060Y420656D01*
Y421312D01*
X58404Y421968D01*
X56436D01*
X11624Y418280D02*
X10968Y418936D01*
X9656D01*
X9000Y418280D01*
Y415656D01*
X9656Y415000D01*
X10968D01*
X11624Y415656D01*
X12936Y415000D02*
X14248D01*
X13592D01*
Y418936D01*
X12936Y418280D01*
X16216D02*
X16872Y418936D01*
X18183D01*
X18839Y418280D01*
Y417624D01*
X18183Y416968D01*
X18839Y416312D01*
Y415656D01*
X18183Y415000D01*
X16872D01*
X16216Y415656D01*
Y416312D01*
X16872Y416968D01*
X16216Y417624D01*
Y418280D01*
X16872Y416968D02*
X18183D01*
X112500Y373000D02*
Y376936D01*
X114468D01*
X115124Y376280D01*
Y374968D01*
X114468Y374312D01*
X112500D01*
X113812D02*
X115124Y373000D01*
X116436Y376280D02*
X117092Y376936D01*
X118404D01*
X119060Y376280D01*
Y375624D01*
X118404Y374968D01*
X117748D01*
X118404D01*
X119060Y374312D01*
Y373656D01*
X118404Y373000D01*
X117092D01*
X116436Y373656D01*
X137124Y379156D02*
Y381780D01*
X136468Y382436D01*
X135156D01*
X134500Y381780D01*
Y379156D01*
X135156Y378500D01*
X136468D01*
X135812Y379812D02*
X137124Y378500D01*
X136468D02*
X137124Y379156D01*
X138436Y378500D02*
X139748D01*
X139092D01*
Y382436D01*
X138436Y381780D01*
X116500Y352500D02*
Y356436D01*
X118468D01*
X119124Y355780D01*
Y354468D01*
X118468Y353812D01*
X116500D01*
X120436Y355780D02*
X121092Y356436D01*
X122404D01*
X123060Y355780D01*
Y355124D01*
X122404Y354468D01*
X121748D01*
X122404D01*
X123060Y353812D01*
Y353156D01*
X122404Y352500D01*
X121092D01*
X120436Y353156D01*
X43000Y430200D02*
Y434136D01*
X44968D01*
X45624Y433480D01*
Y432168D01*
X44968Y431512D01*
X43000D01*
X44312D02*
X45624Y430200D01*
X46936Y434136D02*
X49560D01*
Y433480D01*
X46936Y430856D01*
Y430200D01*
X122500Y473500D02*
Y477436D01*
X124468D01*
X125124Y476780D01*
Y475468D01*
X124468Y474812D01*
X122500D01*
X123812D02*
X125124Y473500D01*
X126436D02*
X127748D01*
X127092D01*
Y477436D01*
X126436Y476780D01*
X129716Y473500D02*
X131027D01*
X130371D01*
Y477436D01*
X129716Y476780D01*
X36938Y479000D02*
Y482936D01*
X38906D01*
X39562Y482280D01*
Y480968D01*
X38906Y480312D01*
X36938D01*
X38250D02*
X39562Y479000D01*
X40874D02*
X42185D01*
X41530D01*
Y482936D01*
X40874Y482280D01*
X44153D02*
X44809Y482936D01*
X46121D01*
X46777Y482280D01*
Y479656D01*
X46121Y479000D01*
X44809D01*
X44153Y479656D01*
Y482280D01*
X42657Y464000D02*
Y467936D01*
X44625D01*
X45281Y467280D01*
Y465968D01*
X44625Y465312D01*
X42657D01*
X43969D02*
X45281Y464000D01*
X46593Y464656D02*
X47249Y464000D01*
X48561D01*
X49217Y464656D01*
Y467280D01*
X48561Y467936D01*
X47249D01*
X46593Y467280D01*
Y466624D01*
X47249Y465968D01*
X49217D01*
X15300Y207500D02*
Y211436D01*
X17268D01*
X17924Y210780D01*
Y209468D01*
X17268Y208812D01*
X15300D01*
X21860Y207500D02*
X19236D01*
X21860Y210124D01*
Y210780D01*
X21204Y211436D01*
X19892D01*
X19236Y210780D01*
X39298Y306024D02*
X38642Y306680D01*
X37330D01*
X36674Y306024D01*
Y303400D01*
X37330Y302744D01*
X38642D01*
X39298Y303400D01*
X40610Y306024D02*
X41266Y306680D01*
X42578D01*
X43234Y306024D01*
Y305368D01*
X42578Y304712D01*
X43234Y304056D01*
Y303400D01*
X42578Y302744D01*
X41266D01*
X40610Y303400D01*
Y304056D01*
X41266Y304712D01*
X40610Y305368D01*
Y306024D01*
X41266Y304712D02*
X42578D01*
X133002Y416416D02*
X132346Y417072D01*
X131034D01*
X130378Y416416D01*
Y413792D01*
X131034Y413136D01*
X132346D01*
X133002Y413792D01*
X134314Y413136D02*
X135626D01*
X134970D01*
Y417072D01*
X134314Y416416D01*
X140217Y413136D02*
X137593D01*
X140217Y415760D01*
Y416416D01*
X139561Y417072D01*
X138249D01*
X137593Y416416D01*
X88124Y436280D02*
X87468Y436936D01*
X86156D01*
X85500Y436280D01*
Y433656D01*
X86156Y433000D01*
X87468D01*
X88124Y433656D01*
X89436Y433000D02*
X90748D01*
X90092D01*
Y436936D01*
X89436Y436280D01*
X92716Y433656D02*
X93371Y433000D01*
X94683D01*
X95339Y433656D01*
Y436280D01*
X94683Y436936D01*
X93371D01*
X92716Y436280D01*
Y435624D01*
X93371Y434968D01*
X95339D01*
X4624Y427780D02*
X3968Y428436D01*
X2656D01*
X2000Y427780D01*
Y425156D01*
X2656Y424500D01*
X3968D01*
X4624Y425156D01*
X5936Y424500D02*
X7248D01*
X6592D01*
Y428436D01*
X5936Y427780D01*
X9216Y428436D02*
X11839D01*
Y427780D01*
X9216Y425156D01*
Y424500D01*
X131200Y498000D02*
Y501936D01*
X133168D01*
X133824Y501280D01*
Y499968D01*
X133168Y499312D01*
X131200D01*
X137760Y501936D02*
X135136D01*
Y499968D01*
X136448Y500624D01*
X137104D01*
X137760Y499968D01*
Y498656D01*
X137104Y498000D01*
X135792D01*
X135136Y498656D01*
X62624Y497936D02*
X61312D01*
X61968D01*
Y494656D01*
X61312Y494000D01*
X60656D01*
X60000Y494656D01*
X63936Y494000D02*
X65248D01*
X64592D01*
Y497936D01*
X63936Y497280D01*
X155624Y371780D02*
X154968Y372436D01*
X153656D01*
X153000Y371780D01*
Y369156D01*
X153656Y368500D01*
X154968D01*
X155624Y369156D01*
Y370468D01*
X154312D01*
X156936Y368500D02*
Y372436D01*
X158904D01*
X159560Y371780D01*
Y370468D01*
X158904Y369812D01*
X156936D01*
X163495Y371780D02*
X162839Y372436D01*
X161527D01*
X160872Y371780D01*
Y371124D01*
X161527Y370468D01*
X162839D01*
X163495Y369812D01*
Y369156D01*
X162839Y368500D01*
X161527D01*
X160872Y369156D01*
X164807Y368500D02*
X166119D01*
X165463D01*
Y372436D01*
X164807Y371780D01*
X30518Y252280D02*
X29862Y252936D01*
X28550D01*
X27894Y252280D01*
Y249656D01*
X28550Y249000D01*
X29862D01*
X30518Y249656D01*
X33797Y252936D02*
X32485D01*
X31829Y252280D01*
Y249656D01*
X32485Y249000D01*
X33797D01*
X34453Y249656D01*
Y252280D01*
X33797Y252936D01*
X35765Y249000D02*
Y252936D01*
X37077Y251624D01*
X38389Y252936D01*
Y249000D01*
X39701D02*
Y252936D01*
X41669D01*
X42325Y252280D01*
Y250968D01*
X41669Y250312D01*
X39701D01*
X43637Y249000D02*
X44949D01*
X44293D01*
Y252936D01*
X43637Y252280D01*
X166730D02*
X166074Y252936D01*
X164762D01*
X164106Y252280D01*
Y249656D01*
X164762Y249000D01*
X166074D01*
X166730Y249656D01*
X170010Y252936D02*
X168698D01*
X168042Y252280D01*
Y249656D01*
X168698Y249000D01*
X170010D01*
X170666Y249656D01*
Y252280D01*
X170010Y252936D01*
X171978Y249000D02*
Y252936D01*
X173290Y251624D01*
X174602Y252936D01*
Y249000D01*
X175914D02*
Y252936D01*
X177881D01*
X178537Y252280D01*
Y250968D01*
X177881Y250312D01*
X175914D01*
X182473Y249000D02*
X179849D01*
X182473Y251624D01*
Y252280D01*
X181817Y252936D01*
X180505D01*
X179849Y252280D01*
X26655Y444480D02*
X25999Y445136D01*
X24687D01*
X24031Y444480D01*
Y443824D01*
X24687Y443168D01*
X25999D01*
X26655Y442512D01*
Y441856D01*
X25999Y441200D01*
X24687D01*
X24031Y441856D01*
X30591Y445136D02*
X27967D01*
Y441200D01*
X30591D01*
X27967Y443168D02*
X29279D01*
X31903Y441200D02*
Y445136D01*
X34527Y441200D01*
Y445136D01*
X35839Y441200D02*
X37150D01*
X36495D01*
Y445136D01*
X35839Y444480D01*
X71657Y415436D02*
Y412156D01*
X72313Y411500D01*
X73625D01*
X74281Y412156D01*
Y415436D01*
X77561Y411500D02*
Y415436D01*
X75593Y413468D01*
X78217D01*
X86000Y299436D02*
Y298780D01*
X87312Y297468D01*
X88624Y298780D01*
Y299436D01*
X87312Y297468D02*
Y295500D01*
X89936D02*
X91248D01*
X90592D01*
Y299436D01*
X89936Y298780D01*
X166301Y440780D02*
X165645Y441436D01*
X164333D01*
X163677Y440780D01*
Y438156D01*
X164333Y437500D01*
X165645D01*
X166301Y438156D01*
X167613Y437500D02*
X168925D01*
X168269D01*
Y441436D01*
X167613Y440780D01*
X170892Y437500D02*
X172204D01*
X171548D01*
Y441436D01*
X170892Y440780D01*
X166415Y466780D02*
X165759Y467436D01*
X164447D01*
X163791Y466780D01*
Y464156D01*
X164447Y463500D01*
X165759D01*
X166415Y464156D01*
X167727Y463500D02*
X169039D01*
X168383D01*
Y467436D01*
X167727Y466780D01*
X171007D02*
X171663Y467436D01*
X172975D01*
X173631Y466780D01*
Y464156D01*
X172975Y463500D01*
X171663D01*
X171007Y464156D01*
Y466780D01*
X42657Y388436D02*
Y384500D01*
X44625D01*
X45281Y385156D01*
Y387780D01*
X44625Y388436D01*
X42657D01*
X46593Y384500D02*
X47905D01*
X47249D01*
Y388436D01*
X46593Y387780D01*
X109624Y430780D02*
X108968Y431436D01*
X107656D01*
X107000Y430780D01*
Y430124D01*
X107656Y429468D01*
X108968D01*
X109624Y428812D01*
Y428156D01*
X108968Y427500D01*
X107656D01*
X107000Y428156D01*
X113560Y431436D02*
X110936D01*
Y427500D01*
X113560D01*
X110936Y429468D02*
X112248D01*
X114872Y427500D02*
Y431436D01*
X117495Y427500D01*
Y431436D01*
X121431Y427500D02*
X118807D01*
X121431Y430124D01*
Y430780D01*
X120775Y431436D01*
X119463D01*
X118807Y430780D01*
X144240Y464000D02*
Y467936D01*
X146208D01*
X146864Y467280D01*
Y465968D01*
X146208Y465312D01*
X144240D01*
X145552D02*
X146864Y464000D01*
X150800D02*
X148176D01*
X150800Y466624D01*
Y467280D01*
X150144Y467936D01*
X148832D01*
X148176Y467280D01*
X132000Y464000D02*
Y467936D01*
X133968D01*
X134624Y467280D01*
Y465968D01*
X133968Y465312D01*
X132000D01*
X133312D02*
X134624Y464000D01*
X135936D02*
X137248D01*
X136592D01*
Y467936D01*
X135936Y467280D01*
X4500Y388000D02*
Y391936D01*
X6468D01*
X7124Y391280D01*
Y389968D01*
X6468Y389312D01*
X4500D01*
X5812D02*
X7124Y388000D01*
X11060Y391936D02*
X9748Y391280D01*
X8436Y389968D01*
Y388656D01*
X9092Y388000D01*
X10404D01*
X11060Y388656D01*
Y389312D01*
X10404Y389968D01*
X8436D01*
X4500Y398500D02*
Y402436D01*
X6468D01*
X7124Y401780D01*
Y400468D01*
X6468Y399812D01*
X4500D01*
X5812D02*
X7124Y398500D01*
X10404D02*
Y402436D01*
X8436Y400468D01*
X11060D01*
X59000Y324500D02*
Y328436D01*
X60312Y327124D01*
X61624Y328436D01*
Y324500D01*
X62936D02*
X64248D01*
X63592D01*
Y328436D01*
X62936Y327780D01*
X207000Y446936D02*
Y443656D01*
X207656Y443000D01*
X208968D01*
X209624Y443656D01*
Y446936D01*
X213560Y443000D02*
X210936D01*
X213560Y445624D01*
Y446280D01*
X212904Y446936D01*
X211592D01*
X210936Y446280D01*
X181000Y384936D02*
Y381656D01*
X181656Y381000D01*
X182968D01*
X183624Y381656D01*
Y384936D01*
X184936Y384280D02*
X185592Y384936D01*
X186904D01*
X187560Y384280D01*
Y383624D01*
X186904Y382968D01*
X186248D01*
X186904D01*
X187560Y382312D01*
Y381656D01*
X186904Y381000D01*
X185592D01*
X184936Y381656D01*
X5500Y311000D02*
X9436D01*
Y309032D01*
X8780Y308376D01*
X7468D01*
X6812Y309032D01*
Y311000D01*
Y309688D02*
X5500Y308376D01*
X9436Y304440D02*
Y307064D01*
X5500D01*
Y304440D01*
X7468Y307064D02*
Y305752D01*
X8780Y300505D02*
X9436Y301161D01*
Y302473D01*
X8780Y303129D01*
X8124D01*
X7468Y302473D01*
Y301161D01*
X6812Y300505D01*
X6156D01*
X5500Y301161D01*
Y302473D01*
X6156Y303129D01*
X9436Y296569D02*
Y299193D01*
X5500D01*
Y296569D01*
X7468Y299193D02*
Y297881D01*
X9436Y295257D02*
Y292633D01*
Y293945D01*
X5500D01*
Y291321D02*
Y290009D01*
Y290665D01*
X9436D01*
X8780Y291321D01*
X36674Y312047D02*
Y315983D01*
X38642D01*
X39298Y315327D01*
Y314015D01*
X38642Y313359D01*
X36674D01*
X37986D02*
X39298Y312047D01*
X43234Y315983D02*
X40610D01*
Y314015D01*
X41922Y314671D01*
X42578D01*
X43234Y314015D01*
Y312703D01*
X42578Y312047D01*
X41266D01*
X40610Y312703D01*
X222000Y423436D02*
Y419500D01*
X224624D01*
X225936D02*
X227248D01*
X226592D01*
Y423436D01*
X225936Y422780D01*
X254024Y453936D02*
X254000Y450000D01*
X255968Y449988D01*
X256628Y450640D01*
X256644Y453264D01*
X255992Y453924D01*
X254024Y453936D01*
X260559Y449961D02*
X257936Y449976D01*
X260575Y452584D01*
X260579Y453240D01*
X259927Y453900D01*
X258615Y453908D01*
X257955Y453256D01*
X46018Y295780D02*
X45362Y296436D01*
X44050D01*
X43394Y295780D01*
Y293156D01*
X44050Y292500D01*
X45362D01*
X46018Y293156D01*
X47329D02*
X47985Y292500D01*
X49297D01*
X49953Y293156D01*
Y295780D01*
X49297Y296436D01*
X47985D01*
X47329Y295780D01*
Y295124D01*
X47985Y294468D01*
X49953D01*
X130624Y295780D02*
X129968Y296436D01*
X128656D01*
X128000Y295780D01*
Y293156D01*
X128656Y292500D01*
X129968D01*
X130624Y293156D01*
X134560Y296436D02*
X133248Y295780D01*
X131936Y294468D01*
Y293156D01*
X132592Y292500D01*
X133904D01*
X134560Y293156D01*
Y293812D01*
X133904Y294468D01*
X131936D01*
X152124Y393280D02*
X151468Y393936D01*
X150156D01*
X149500Y393280D01*
Y390656D01*
X150156Y390000D01*
X151468D01*
X152124Y390656D01*
X153436Y390000D02*
X154748D01*
X154092D01*
Y393936D01*
X153436Y393280D01*
X159339Y393936D02*
X158027Y393280D01*
X156716Y391968D01*
Y390656D01*
X157371Y390000D01*
X158683D01*
X159339Y390656D01*
Y391312D01*
X158683Y391968D01*
X156716D01*
X201624Y417780D02*
X200968Y418436D01*
X199656D01*
X199000Y417780D01*
Y415156D01*
X199656Y414500D01*
X200968D01*
X201624Y415156D01*
X202936Y414500D02*
X204248D01*
X203592D01*
Y418436D01*
X202936Y417780D01*
X208839Y418436D02*
X206216D01*
Y416468D01*
X207527Y417124D01*
X208183D01*
X208839Y416468D01*
Y415156D01*
X208183Y414500D01*
X206872D01*
X206216Y415156D01*
M02*
