G04*
G04 #@! TF.GenerationSoftware,Altium Limited,Altium Designer,18.0.12 (696)*
G04*
G04 Layer_Color=8388736*
%FSLAX25Y25*%
%MOIN*%
G70*
G01*
G75*
%ADD19R,0.10485X0.07021*%
%ADD20R,0.04343X0.03950*%
%ADD21R,0.04343X0.03556*%
%ADD22R,0.03950X0.04343*%
%ADD23R,0.03556X0.04343*%
%ADD24R,0.03162X0.05328*%
%ADD25R,0.02200X0.06600*%
%ADD26R,0.03950X0.05682*%
%ADD27R,0.04540X0.10642*%
%ADD28R,0.05328X0.09461*%
%ADD29R,0.05367X0.05721*%
%ADD30R,0.05367X0.05524*%
%ADD31R,0.06706X0.05328*%
%ADD32O,0.01981X0.07887*%
%ADD33O,0.07887X0.01981*%
%ADD34R,0.06863X0.07493*%
%ADD35O,0.03162X0.01587*%
%ADD36O,0.01587X0.03162*%
%ADD37R,0.06000X0.02800*%
%ADD38R,0.06000X0.03000*%
%ADD39R,0.05958X0.02887*%
%ADD40R,0.15367X0.07493*%
%ADD41R,0.22800X0.08800*%
%ADD42R,0.07493X0.05131*%
%ADD43R,0.04934X0.13398*%
%ADD44R,0.41942X0.33477*%
%ADD45R,0.10249X0.04737*%
%ADD46R,0.10249X0.13792*%
%ADD47R,0.09855X0.09855*%
%ADD48R,0.10800X0.13800*%
%ADD49R,0.06706X0.06706*%
%ADD50C,0.06706*%
%ADD51R,0.06706X0.06706*%
%ADD52C,0.20500*%
%ADD53C,0.06800*%
%ADD54C,0.11800*%
%ADD55C,0.07800*%
%ADD56C,0.20485*%
%ADD57C,0.05200*%
%ADD58C,0.23800*%
%ADD59C,0.05800*%
%ADD60C,0.04800*%
D19*
X179291Y427000D02*
D03*
X165709D02*
D03*
X179291Y453500D02*
D03*
X165709D02*
D03*
D20*
X86400Y387744D02*
D03*
Y393256D02*
D03*
X119000Y342256D02*
D03*
Y336744D02*
D03*
X33000Y302744D02*
D03*
Y308256D02*
D03*
X127000Y418256D02*
D03*
Y412744D02*
D03*
X20031Y423944D02*
D03*
Y429456D02*
D03*
X124000Y298256D02*
D03*
Y292744D02*
D03*
X57000Y298256D02*
D03*
Y292744D02*
D03*
D21*
X44201Y427453D02*
D03*
Y421547D02*
D03*
X58000Y404453D02*
D03*
Y398547D02*
D03*
X44201Y455047D02*
D03*
Y460953D02*
D03*
X38438Y475953D02*
D03*
Y470047D02*
D03*
X119500Y478453D02*
D03*
Y472547D02*
D03*
X33000Y317953D02*
D03*
Y312047D02*
D03*
X18000Y403638D02*
D03*
Y397732D02*
D03*
Y393638D02*
D03*
Y387732D02*
D03*
D22*
X35260Y399500D02*
D03*
X29748D02*
D03*
X32287Y419700D02*
D03*
X26776D02*
D03*
X77244Y437500D02*
D03*
X82756D02*
D03*
D23*
X126453Y369500D02*
D03*
X120547D02*
D03*
X145122Y460715D02*
D03*
X151028D02*
D03*
X133122D02*
D03*
X139028D02*
D03*
D24*
X136760Y365024D02*
D03*
X144240D02*
D03*
X140500Y373882D02*
D03*
D25*
X89000Y399000D02*
D03*
X86400D02*
D03*
X83800D02*
D03*
X81300D02*
D03*
X78700D02*
D03*
X76200D02*
D03*
X73600D02*
D03*
X71000D02*
D03*
Y422000D02*
D03*
X73600D02*
D03*
X76200D02*
D03*
X78700D02*
D03*
X81300D02*
D03*
X83800D02*
D03*
X86400D02*
D03*
X89000D02*
D03*
D26*
X73583Y494520D02*
D03*
X77913D02*
D03*
X82244D02*
D03*
X86575D02*
D03*
X90906D02*
D03*
X95236D02*
D03*
X99567D02*
D03*
X103898D02*
D03*
D27*
X56476Y492039D02*
D03*
D28*
X113130Y492630D02*
D03*
X56870Y447433D02*
D03*
D29*
X111535Y484165D02*
D03*
D30*
Y448732D02*
D03*
D31*
X73819Y444303D02*
D03*
X104449D02*
D03*
D32*
X57878Y376724D02*
D03*
X59846D02*
D03*
X61815D02*
D03*
X63783D02*
D03*
X65752D02*
D03*
X67720D02*
D03*
X69689D02*
D03*
X71657D02*
D03*
X73626D02*
D03*
X75594D02*
D03*
X77563D02*
D03*
X79532D02*
D03*
X81500D02*
D03*
X83469D02*
D03*
X85437D02*
D03*
X87406D02*
D03*
X89374D02*
D03*
X91343D02*
D03*
X93311D02*
D03*
X95280D02*
D03*
X97248D02*
D03*
X99217D02*
D03*
X101185D02*
D03*
X103154D02*
D03*
X105122D02*
D03*
Y317276D02*
D03*
X103154D02*
D03*
X101185D02*
D03*
X99217D02*
D03*
X97248D02*
D03*
X95280D02*
D03*
X93311D02*
D03*
X91343D02*
D03*
X89374D02*
D03*
X87406D02*
D03*
X85437D02*
D03*
X83469D02*
D03*
X81500D02*
D03*
X79532D02*
D03*
X77563D02*
D03*
X75594D02*
D03*
X73626D02*
D03*
X71657D02*
D03*
X69689D02*
D03*
X67720D02*
D03*
X65752D02*
D03*
X63783D02*
D03*
X61815D02*
D03*
X59846D02*
D03*
X57878D02*
D03*
D33*
X111224Y370622D02*
D03*
Y368654D02*
D03*
Y366685D02*
D03*
Y364717D02*
D03*
Y362748D02*
D03*
Y360780D02*
D03*
Y358811D02*
D03*
Y356843D02*
D03*
Y354874D02*
D03*
Y352906D02*
D03*
Y350937D02*
D03*
Y348969D02*
D03*
Y347000D02*
D03*
Y345032D02*
D03*
Y343063D02*
D03*
Y341094D02*
D03*
Y339126D02*
D03*
Y337157D02*
D03*
Y335189D02*
D03*
Y333220D02*
D03*
Y331252D02*
D03*
Y329283D02*
D03*
Y327315D02*
D03*
Y325346D02*
D03*
Y323378D02*
D03*
X51776D02*
D03*
Y325346D02*
D03*
Y327315D02*
D03*
Y329283D02*
D03*
Y331252D02*
D03*
Y333220D02*
D03*
Y335189D02*
D03*
Y337157D02*
D03*
Y339126D02*
D03*
Y341094D02*
D03*
Y343063D02*
D03*
Y345032D02*
D03*
Y347000D02*
D03*
Y348969D02*
D03*
Y350937D02*
D03*
Y352906D02*
D03*
Y354874D02*
D03*
Y356843D02*
D03*
Y358811D02*
D03*
Y360780D02*
D03*
Y362748D02*
D03*
Y364717D02*
D03*
Y366685D02*
D03*
Y368654D02*
D03*
Y370622D02*
D03*
D34*
X30626Y429987D02*
D03*
D35*
X36531Y433924D02*
D03*
Y432350D02*
D03*
Y430775D02*
D03*
Y429200D02*
D03*
Y427625D02*
D03*
Y426050D02*
D03*
X24720D02*
D03*
Y427625D02*
D03*
Y429200D02*
D03*
Y430775D02*
D03*
Y432350D02*
D03*
Y433924D02*
D03*
D36*
X34563Y424082D02*
D03*
X32988D02*
D03*
X31413D02*
D03*
X29838D02*
D03*
X28264D02*
D03*
X26689D02*
D03*
Y435893D02*
D03*
X28264D02*
D03*
X29838D02*
D03*
X31413D02*
D03*
X32988D02*
D03*
X34563D02*
D03*
D37*
X38438Y390000D02*
D03*
D38*
X29838Y386300D02*
D03*
Y393700D02*
D03*
D39*
X108776Y413339D02*
D03*
Y418261D02*
D03*
Y423182D02*
D03*
X118224D02*
D03*
Y418261D02*
D03*
Y413339D02*
D03*
X108776Y408418D02*
D03*
X118224D02*
D03*
D40*
X21000Y285886D02*
D03*
Y309114D02*
D03*
D41*
X71750Y298000D02*
D03*
X109250D02*
D03*
D42*
X211000Y410815D02*
D03*
Y400185D02*
D03*
X161500D02*
D03*
Y410815D02*
D03*
D43*
X212114Y430378D02*
D03*
X218807D02*
D03*
X225500D02*
D03*
X232193D02*
D03*
X238886D02*
D03*
D44*
X225500Y467583D02*
D03*
D45*
X197417Y392445D02*
D03*
Y401500D02*
D03*
Y410555D02*
D03*
D46*
X174583Y401500D02*
D03*
D47*
X258000Y444142D02*
D03*
Y461858D02*
D03*
D48*
X226000Y408500D02*
D03*
X258000D02*
D03*
D49*
X14500Y375500D02*
D03*
X58000Y413500D02*
D03*
X132760Y355500D02*
D03*
X146000Y490000D02*
D03*
D50*
X24500Y375500D02*
D03*
X34500D02*
D03*
X14389Y326500D02*
D03*
X24389Y336500D02*
D03*
X14389D02*
D03*
X24389Y346500D02*
D03*
X14389D02*
D03*
X48000Y413500D02*
D03*
X142760Y355500D02*
D03*
X20140Y159488D02*
D03*
Y169488D02*
D03*
Y179488D02*
D03*
Y189488D02*
D03*
Y199488D02*
D03*
X136000Y490000D02*
D03*
X158000Y315500D02*
D03*
Y325500D02*
D03*
Y335500D02*
D03*
Y345500D02*
D03*
Y355500D02*
D03*
D51*
X24389Y326500D02*
D03*
X20140Y149488D02*
D03*
D52*
X189431Y80000D02*
D03*
X216990Y268976D02*
D03*
X20140D02*
D03*
Y80000D02*
D03*
D53*
X140500Y124000D02*
D03*
Y135000D02*
D03*
D54*
X128315Y57500D02*
D03*
X148000D02*
D03*
X167504Y489870D02*
D03*
X187189D02*
D03*
D55*
X116504Y18130D02*
D03*
X159811D02*
D03*
X155693Y450500D02*
D03*
X199000D02*
D03*
D56*
X37000Y236000D02*
D03*
Y56197D02*
D03*
X102394Y236000D02*
D03*
Y56197D02*
D03*
X238500D02*
D03*
Y236000D02*
D03*
X173106Y56197D02*
D03*
Y236000D02*
D03*
D57*
X63000Y251697D02*
D03*
X69697D02*
D03*
X76500D02*
D03*
X212606D02*
D03*
X205803D02*
D03*
X199106D02*
D03*
D58*
X20140Y493000D02*
D03*
Y18762D02*
D03*
X255451D02*
D03*
Y493000D02*
D03*
D59*
X247000D02*
D03*
X255451Y484500D02*
D03*
X264000Y493000D02*
D03*
X255500Y501500D02*
D03*
X174500Y388000D02*
D03*
X20140Y502000D02*
D03*
X29140Y493000D02*
D03*
X11140D02*
D03*
X20140Y484000D02*
D03*
Y27762D02*
D03*
X29140Y18762D02*
D03*
X11140D02*
D03*
X20140Y9762D02*
D03*
X255451Y27762D02*
D03*
X264451Y18762D02*
D03*
X246451D02*
D03*
X255451Y9762D02*
D03*
D60*
X127000Y408500D02*
D03*
M02*
