G04*
G04 #@! TF.GenerationSoftware,Altium Limited,Altium Designer,18.0.12 (696)*
G04*
G04 Layer_Color=32896*
%FSLAX25Y25*%
%MOIN*%
G70*
G01*
G75*
%ADD11C,0.00000*%
%ADD14C,0.00600*%
%ADD15C,0.01000*%
%ADD18C,0.00591*%
D11*
X75200Y223682D02*
X75551Y222833D01*
X76400Y222482D01*
X77249Y222833D01*
X77600Y223682D01*
D14*
X71900Y184282D02*
X81000D01*
X71900Y223682D02*
X75200D01*
X77600D01*
X81000D01*
D15*
X163000Y6000D02*
Y11998D01*
X160001D01*
X159001Y10998D01*
Y8999D01*
X160001Y7999D01*
X163000D01*
X161001D02*
X159001Y6000D01*
X154003D02*
X156002D01*
X157002Y7000D01*
Y8999D01*
X156002Y9999D01*
X154003D01*
X153003Y8999D01*
Y7999D01*
X157002D01*
X147005Y9999D02*
X150004D01*
X151004Y8999D01*
Y7000D01*
X150004Y6000D01*
X147005D01*
X144006D02*
X142007D01*
X141007Y7000D01*
Y8999D01*
X142007Y9999D01*
X144006D01*
X145006Y8999D01*
Y7000D01*
X144006Y6000D01*
X139008Y9999D02*
X137008Y6000D01*
X135009Y9999D01*
X130011Y6000D02*
X132010D01*
X133010Y7000D01*
Y8999D01*
X132010Y9999D01*
X130011D01*
X129011Y8999D01*
Y7999D01*
X133010D01*
X127012Y9999D02*
Y6000D01*
Y7999D01*
X126012Y8999D01*
X125012Y9999D01*
X124013D01*
X121014D02*
Y7000D01*
X120014Y6000D01*
X117015D01*
Y5000D01*
X118015Y4001D01*
X119014D01*
X117015Y6000D02*
Y9999D01*
X201900Y437600D02*
Y441599D01*
X199901Y443598D01*
X197901Y441599D01*
Y437600D01*
Y440599D01*
X201900D01*
X195902Y441599D02*
X193903Y437600D01*
X191903Y441599D01*
X189904Y437600D02*
X187905D01*
X188904D01*
Y441599D01*
X189904D01*
X183906Y437600D02*
X181906D01*
X180907Y438600D01*
Y440599D01*
X181906Y441599D01*
X183906D01*
X184906Y440599D01*
Y438600D01*
X183906Y437600D01*
X178907D02*
Y441599D01*
X175908D01*
X174909Y440599D01*
Y437600D01*
X172909D02*
X170910D01*
X171910D01*
Y441599D01*
X172909D01*
X163912D02*
X166911D01*
X167911Y440599D01*
Y438600D01*
X166911Y437600D01*
X163912D01*
X161913D02*
X158914D01*
X157914Y438600D01*
X158914Y439599D01*
X160913D01*
X161913Y440599D01*
X160913Y441599D01*
X157914D01*
D18*
X89500Y229417D02*
Y226138D01*
X88844Y225482D01*
X87532D01*
X86876Y226138D01*
Y229417D01*
X85564Y225482D02*
X84252D01*
X84908D01*
Y229417D01*
X85564Y228761D01*
X112104Y189943D02*
X112760Y190598D01*
X114072D01*
X114728Y189943D01*
Y187319D01*
X114072Y186663D01*
X112760D01*
X112104Y187319D01*
X108169Y190598D02*
X110793D01*
Y188631D01*
X109481Y189287D01*
X108825D01*
X108169Y188631D01*
Y187319D01*
X108825Y186663D01*
X110137D01*
X110793Y187319D01*
X111526Y218917D02*
X112182Y219573D01*
X113494D01*
X114149Y218917D01*
Y216293D01*
X113494Y215637D01*
X112182D01*
X111526Y216293D01*
X108246Y215637D02*
Y219573D01*
X110214Y217605D01*
X107590D01*
X111526Y203961D02*
X112182Y204617D01*
X113494D01*
X114149Y203961D01*
Y201338D01*
X113494Y200682D01*
X112182D01*
X111526Y201338D01*
X110214Y203961D02*
X109558Y204617D01*
X108246D01*
X107590Y203961D01*
Y203305D01*
X108246Y202649D01*
X108902D01*
X108246D01*
X107590Y201993D01*
Y201338D01*
X108246Y200682D01*
X109558D01*
X110214Y201338D01*
X85376Y243761D02*
X86032Y244417D01*
X87344D01*
X88000Y243761D01*
Y241138D01*
X87344Y240482D01*
X86032D01*
X85376Y241138D01*
X81440Y240482D02*
X84064D01*
X81440Y243106D01*
Y243761D01*
X82096Y244417D01*
X83408D01*
X84064Y243761D01*
X65876Y239261D02*
X66532Y239917D01*
X67844D01*
X68500Y239261D01*
Y236638D01*
X67844Y235982D01*
X66532D01*
X65876Y236638D01*
X64564Y235982D02*
X63252D01*
X63908D01*
Y239917D01*
X64564Y239261D01*
X163100Y69936D02*
Y66000D01*
X161132D01*
X160476Y66656D01*
Y67312D01*
X161132Y67968D01*
X163100D01*
X161132D01*
X160476Y68624D01*
Y69280D01*
X161132Y69936D01*
X163100D01*
X159164Y66000D02*
Y68624D01*
X157852Y69936D01*
X156540Y68624D01*
Y66000D01*
Y67968D01*
X159164D01*
X155228Y69936D02*
X152605D01*
X153917D01*
Y66000D01*
X148669D02*
X151293D01*
X148669Y68624D01*
Y69280D01*
X149325Y69936D01*
X150637D01*
X151293Y69280D01*
X202300Y502336D02*
Y498400D01*
X200332D01*
X199676Y499056D01*
Y499712D01*
X200332Y500368D01*
X202300D01*
X200332D01*
X199676Y501024D01*
Y501680D01*
X200332Y502336D01*
X202300D01*
X198364Y498400D02*
Y501024D01*
X197052Y502336D01*
X195740Y501024D01*
Y498400D01*
Y500368D01*
X198364D01*
X194429Y502336D02*
X191805D01*
X193117D01*
Y498400D01*
X190493D02*
X189181D01*
X189837D01*
Y502336D01*
X190493Y501680D01*
M02*
