G04*
G04 #@! TF.GenerationSoftware,Altium Limited,Altium Designer,18.0.12 (696)*
G04*
G04 Layer_Color=16711935*
%FSLAX25Y25*%
%MOIN*%
G70*
G01*
G75*
%ADD20R,0.04343X0.03950*%
%ADD22R,0.03950X0.04343*%
%ADD49R,0.06706X0.06706*%
%ADD50C,0.06706*%
%ADD51R,0.06706X0.06706*%
%ADD52C,0.20500*%
%ADD53C,0.06800*%
%ADD54C,0.11800*%
%ADD55C,0.07800*%
%ADD57C,0.05200*%
%ADD58C,0.23800*%
%ADD59C,0.05800*%
%ADD60C,0.04800*%
%ADD109R,0.08900X0.03200*%
D20*
X67000Y227226D02*
D03*
Y232737D02*
D03*
X95149Y221419D02*
D03*
Y215907D02*
D03*
Y206437D02*
D03*
Y200926D02*
D03*
X95728Y192419D02*
D03*
Y186907D02*
D03*
D22*
X81244Y236982D02*
D03*
X86756D02*
D03*
D49*
X14500Y375500D02*
D03*
X58000Y413500D02*
D03*
X132760Y355500D02*
D03*
X146000Y490000D02*
D03*
D50*
X24500Y375500D02*
D03*
X34500D02*
D03*
X14389Y326500D02*
D03*
X24389Y336500D02*
D03*
X14389D02*
D03*
X24389Y346500D02*
D03*
X14389D02*
D03*
X48000Y413500D02*
D03*
X142760Y355500D02*
D03*
X20140Y159488D02*
D03*
Y169488D02*
D03*
Y179488D02*
D03*
Y189488D02*
D03*
Y199488D02*
D03*
X136000Y490000D02*
D03*
X158000Y315500D02*
D03*
Y325500D02*
D03*
Y335500D02*
D03*
Y345500D02*
D03*
Y355500D02*
D03*
D51*
X24389Y326500D02*
D03*
X20140Y149488D02*
D03*
D52*
X189431Y80000D02*
D03*
X216990Y268976D02*
D03*
X20140D02*
D03*
Y80000D02*
D03*
D53*
X140500Y124000D02*
D03*
Y135000D02*
D03*
X37000Y236000D02*
D03*
Y56197D02*
D03*
X102394Y236000D02*
D03*
Y56197D02*
D03*
X238500D02*
D03*
Y236000D02*
D03*
X173106Y56197D02*
D03*
Y236000D02*
D03*
D54*
X128315Y57500D02*
D03*
X148000D02*
D03*
X167504Y489870D02*
D03*
X187189D02*
D03*
D55*
X116504Y18130D02*
D03*
X159811D02*
D03*
X155693Y450500D02*
D03*
X199000D02*
D03*
D57*
X63000Y251697D02*
D03*
X69697D02*
D03*
X76500D02*
D03*
X212606D02*
D03*
X205803D02*
D03*
X199106D02*
D03*
D58*
X20140Y493000D02*
D03*
Y18762D02*
D03*
X255451D02*
D03*
Y493000D02*
D03*
D59*
X247000D02*
D03*
X255451Y484500D02*
D03*
X264000Y493000D02*
D03*
X255500Y501500D02*
D03*
X174500Y388000D02*
D03*
X20140Y502000D02*
D03*
X29140Y493000D02*
D03*
X11140D02*
D03*
X20140Y484000D02*
D03*
Y27762D02*
D03*
X29140Y18762D02*
D03*
X11140D02*
D03*
X20140Y9762D02*
D03*
X255451Y27762D02*
D03*
X264451Y18762D02*
D03*
X246451D02*
D03*
X255451Y9762D02*
D03*
D60*
X127000Y408500D02*
D03*
D109*
X85900Y221482D02*
D03*
Y216482D02*
D03*
Y211482D02*
D03*
Y206482D02*
D03*
Y201482D02*
D03*
Y196482D02*
D03*
Y191482D02*
D03*
Y186482D02*
D03*
X67000D02*
D03*
Y191482D02*
D03*
Y196482D02*
D03*
Y201482D02*
D03*
Y206482D02*
D03*
Y211482D02*
D03*
Y216482D02*
D03*
Y221482D02*
D03*
M02*
