M48
;Layer_Color=9474304
;FILE_FORMAT=2:5
INCH,TZ
;TYPE=PLATED
T1F00S00C0.01181
T2F00S00C0.02400
T3F00S00C0.02800
T4F00S00C0.03543
T5F00S00C0.03937
T6F00S00C0.04400
T7F00S00C0.07000
T8F00S00C0.12205
T9F00S00C0.12992
T10F00S00C0.13000
%
T01
X58500Y201528
Y211500
X32641Y285886
X95236Y311500
X97248Y362748
X92500Y367500
X81000Y387500
X62225Y383895
X51600Y376000
X44500Y368654
X42243Y355500
Y348969
X45500Y345000
X21000Y315047
X23500Y387732
Y393700
Y403638
X16031Y423944
X40031Y424227
X55000Y435500
X63134Y432350
X71728Y438000
X67720Y444500
X93500Y445000
X86400Y428000
X77913Y461087
X67000Y398500
X123339Y418261
X145000Y424000
X99567Y489000
X90906Y489094
X82244Y489000
X95236Y499500
T02
X199106Y251697
X205803
X212606
X76500
X69697
X63000
T03
X11140Y18762
X20140Y27762
X29140Y18762
X20140Y9762
X246451Y18762
X255451Y27762
X264451Y18762
X255451Y9762
X127000Y408500
X174500Y388000
X255451Y484500
X247000Y493000
X264000
X255500Y501500
X29140Y493000
X20140Y502000
X11140Y493000
X20140Y484000
T04
X20140Y149488
Y159488
Y169488
Y179488
Y189488
Y199488
X24389Y326500
X14389
Y336500
X24389
Y346500
X14389
X14500Y375500
X24500
X34500
X48000Y413500
X58000
X132760Y355500
X142760
X158000
Y345500
Y335500
Y325500
Y315500
X146000Y490000
X136000
T05
X140500Y124000
Y135000
T06
X116504Y18130
X159811
X155693Y450500
X199000
T07
X128315Y57500
X148000
X167504Y489870
X187189
T08
X20140Y18762
X255451
Y493000
X20140
T09
X37000Y56197
X102394Y56197
X173106Y56197
X238500Y56197
Y236000
X173106
X102394
X37000
T10
X20140Y80000
X189431
X216990Y268976
X20140
M30
