G04*
G04 #@! TF.GenerationSoftware,Altium Limited,Altium Designer,18.0.12 (696)*
G04*
G04 Layer_Color=32768*
%FSLAX25Y25*%
%MOIN*%
G70*
G01*
G75*
%ADD110C,0.00394*%
%ADD111C,0.00197*%
D110*
X84235Y385776D02*
X88565D01*
X84235Y395224D02*
X88565D01*
X84235Y385776D02*
Y395224D01*
X88565Y385776D02*
Y395224D01*
X86400Y388630D02*
Y392370D01*
X84530Y390500D02*
X88270D01*
X116835Y344224D02*
X121165D01*
X116835Y334776D02*
X121165D01*
Y344224D01*
X116835Y334776D02*
Y344224D01*
X119000Y337630D02*
Y341370D01*
X117130Y339500D02*
X120870D01*
X42331Y424500D02*
X46071D01*
X44201Y422630D02*
Y426370D01*
X46366Y419776D02*
Y429224D01*
X42035Y419776D02*
Y429224D01*
X46366D01*
X42035Y419776D02*
X46366D01*
X55835Y406224D02*
X60165D01*
X55835Y396776D02*
X60165D01*
Y406224D01*
X55835Y396776D02*
Y406224D01*
X58000Y399630D02*
Y403370D01*
X56130Y401500D02*
X59870D01*
X37228Y397335D02*
Y401665D01*
X27779Y397335D02*
Y401665D01*
Y397335D02*
X37228D01*
X27779Y401665D02*
X37228D01*
X30634Y399500D02*
X34374D01*
X32504Y397630D02*
Y401370D01*
X34256Y417535D02*
Y421865D01*
X24807Y417535D02*
Y421865D01*
Y417535D02*
X34256D01*
X24807Y421865D02*
X34256D01*
X27661Y419700D02*
X31402D01*
X29531Y417830D02*
Y421570D01*
X128224Y367335D02*
Y371665D01*
X118776Y367335D02*
Y371665D01*
Y367335D02*
X128224D01*
X118776Y371665D02*
X128224D01*
X121630Y369500D02*
X125370D01*
X123500Y367630D02*
Y371370D01*
X133610Y361776D02*
X147390D01*
X133610Y377130D02*
X147390D01*
X133610Y361776D02*
Y377130D01*
X147390Y361776D02*
Y377130D01*
X140500Y367484D02*
Y371421D01*
X138531Y369453D02*
X142469D01*
X42035Y453276D02*
X46366D01*
X42035Y462724D02*
X46366D01*
X42035Y453276D02*
Y462724D01*
X46366Y453276D02*
Y462724D01*
X44201Y456130D02*
Y459870D01*
X42331Y458000D02*
X46071D01*
X36272Y477724D02*
X40603D01*
X36272Y468276D02*
X40603D01*
Y477724D01*
X36272Y468276D02*
Y477724D01*
X38438Y471130D02*
Y474870D01*
X36568Y473000D02*
X40308D01*
X117335Y480224D02*
X121665D01*
X117335Y470776D02*
X121665D01*
Y480224D01*
X117335Y470776D02*
Y480224D01*
X119500Y473630D02*
Y477370D01*
X117630Y475500D02*
X121370D01*
X79276Y234816D02*
Y239147D01*
X88724Y234816D02*
Y239147D01*
X79276Y234816D02*
X88724D01*
X79276Y239147D02*
X88724D01*
X82130Y236982D02*
X85870D01*
X84000Y235111D02*
Y238852D01*
X64835Y225257D02*
X69165D01*
X64835Y234706D02*
X69165D01*
Y225257D02*
Y234706D01*
X64835Y225257D02*
Y234706D01*
X67000Y228112D02*
Y231852D01*
X65130Y229982D02*
X68870D01*
X92984Y223387D02*
X97315D01*
X92984Y213938D02*
X97315D01*
X92984D02*
Y223387D01*
X97315Y213938D02*
Y223387D01*
X95149Y216793D02*
Y220533D01*
X93279Y218663D02*
X97020D01*
X92984Y208406D02*
X97315D01*
X92984Y198957D02*
X97315D01*
X92984D02*
Y208406D01*
X97315Y198957D02*
Y208406D01*
X95149Y201812D02*
Y205552D01*
X93279Y203682D02*
X97020D01*
X93563Y194387D02*
X97894D01*
X93563Y184938D02*
X97894D01*
X93563D02*
Y194387D01*
X97894Y184938D02*
Y194387D01*
X95728Y187793D02*
Y191533D01*
X93858Y189663D02*
X97598D01*
X30835Y300776D02*
X35165D01*
X30835Y310224D02*
X35165D01*
X30835Y300776D02*
Y310224D01*
X35165Y300776D02*
Y310224D01*
X33000Y303630D02*
Y307370D01*
X31130Y305500D02*
X34870D01*
X30835Y319724D02*
X35165D01*
X30835Y310276D02*
X35165D01*
Y319724D01*
X30835Y310276D02*
Y319724D01*
X33000Y313130D02*
Y316870D01*
X31130Y315000D02*
X34870D01*
X124835Y420224D02*
X129165D01*
X124835Y410776D02*
X129165D01*
Y420224D01*
X124835Y410776D02*
Y420224D01*
X127000Y413630D02*
Y417370D01*
X125130Y415500D02*
X128870D01*
X75276Y435335D02*
Y439665D01*
X84724Y435335D02*
Y439665D01*
X75276D02*
X84724D01*
X75276Y435335D02*
X84724D01*
X78130Y437500D02*
X81870D01*
X80000Y435630D02*
Y439370D01*
X17866Y421976D02*
X22197D01*
X17866Y431424D02*
X22197D01*
X17866Y421976D02*
Y431424D01*
X22197Y421976D02*
Y431424D01*
X20031Y424830D02*
Y428570D01*
X18161Y426700D02*
X21902D01*
X81500Y345032D02*
Y348969D01*
X79532Y347000D02*
X83469D01*
X47248Y312748D02*
X115752D01*
X47248Y381252D02*
X115752D01*
Y312748D02*
Y381252D01*
X47248Y312748D02*
Y381252D01*
X28657Y429987D02*
X32594D01*
X30626Y428019D02*
Y431956D01*
X148075Y458845D02*
Y462585D01*
X146205Y460715D02*
X149945D01*
X143351Y462881D02*
X152799D01*
X143351Y458550D02*
X152799D01*
X143351D02*
Y462881D01*
X152799Y458550D02*
Y462881D01*
X136075Y458845D02*
Y462585D01*
X134205Y460715D02*
X137945D01*
X131351Y462881D02*
X140799D01*
X131351Y458550D02*
X140799D01*
X131351D02*
Y462881D01*
X140799Y458550D02*
Y462881D01*
X16130Y400685D02*
X19870D01*
X18000Y398815D02*
Y402555D01*
X20165Y395961D02*
Y405409D01*
X15835Y395961D02*
Y405409D01*
X20165D01*
X15835Y395961D02*
X20165D01*
X16130Y390685D02*
X19870D01*
X18000Y388815D02*
Y392555D01*
X20165Y385961D02*
Y395409D01*
X15835Y385961D02*
Y395409D01*
X20165D01*
X15835Y385961D02*
X20165D01*
X122130Y295500D02*
X125870D01*
X124000Y293630D02*
Y297370D01*
X126165Y290776D02*
Y300224D01*
X121835Y290776D02*
Y300224D01*
X126165D01*
X121835Y290776D02*
X126165D01*
X55130Y295500D02*
X58870D01*
X57000Y293630D02*
Y297370D01*
X59166Y290776D02*
Y300224D01*
X54835Y290776D02*
Y300224D01*
X59166D01*
X54835Y290776D02*
X59166D01*
X21000Y295531D02*
Y299469D01*
X19031Y297500D02*
X22969D01*
X209031Y405500D02*
X212968D01*
X211000Y403531D02*
Y407468D01*
X214740Y397626D02*
Y413374D01*
X207260Y397626D02*
Y413374D01*
X214740D01*
X207260Y397626D02*
X214740D01*
X203846Y423094D02*
X247154D01*
X203846Y484906D02*
X247154D01*
X203846Y423094D02*
Y484906D01*
X247154Y423094D02*
Y484906D01*
X225500Y452032D02*
Y455969D01*
X223531Y454000D02*
X227469D01*
X159532Y405500D02*
X163469D01*
X161500Y403532D02*
Y407469D01*
X157760Y397626D02*
Y413374D01*
X165240Y397626D02*
Y413374D01*
X157760Y397626D02*
X165240D01*
X157760Y413374D02*
X165240D01*
X184031Y401500D02*
X187969D01*
X186000Y399531D02*
Y403469D01*
D111*
X23342Y422704D02*
Y437271D01*
X37909Y422704D02*
Y437271D01*
X23342Y422704D02*
X37909D01*
X23342Y437271D02*
X37909D01*
X203126Y387327D02*
Y415673D01*
X168874Y387327D02*
Y415673D01*
Y387327D02*
X203126D01*
X168874Y415673D02*
X203126D01*
M02*
