G04*
G04 #@! TF.GenerationSoftware,Altium Limited,Altium Designer,18.0.12 (696)*
G04*
G04 Layer_Physical_Order=1*
G04 Layer_Color=255*
%FSLAX25Y25*%
%MOIN*%
G70*
G01*
G75*
%ADD15C,0.01000*%
%ADD61R,0.09685X0.06221*%
%ADD62R,0.03543X0.03150*%
%ADD63R,0.03543X0.02756*%
%ADD64R,0.03150X0.03543*%
%ADD65R,0.02756X0.03543*%
%ADD66R,0.02362X0.04528*%
%ADD67R,0.01400X0.05800*%
%ADD68R,0.03150X0.04882*%
%ADD69R,0.03740X0.09843*%
%ADD70R,0.04528X0.08661*%
%ADD71R,0.04567X0.04921*%
%ADD72R,0.04567X0.04724*%
%ADD73R,0.05906X0.04528*%
%ADD74O,0.01181X0.07087*%
%ADD75O,0.07087X0.01181*%
%ADD76R,0.06063X0.06693*%
%ADD77O,0.02362X0.00787*%
%ADD78O,0.00787X0.02362*%
%ADD79R,0.05200X0.02000*%
%ADD80R,0.05200X0.02200*%
%ADD81R,0.05158X0.02087*%
%ADD82R,0.14567X0.06693*%
%ADD83R,0.22000X0.08000*%
%ADD84R,0.06693X0.04331*%
%ADD85R,0.04134X0.12598*%
%ADD86R,0.41142X0.32677*%
%ADD87R,0.09449X0.03937*%
%ADD88R,0.09449X0.12992*%
%ADD89R,0.09055X0.09055*%
%ADD90R,0.10000X0.13000*%
%ADD91C,0.00700*%
%ADD92C,0.03500*%
%ADD93C,0.03000*%
%ADD94C,0.02000*%
%ADD95R,0.05906X0.05906*%
%ADD96C,0.05906*%
%ADD97R,0.05906X0.05906*%
%ADD98C,0.19700*%
%ADD99C,0.06000*%
%ADD100C,0.11000*%
%ADD101C,0.07000*%
%ADD102C,0.19685*%
%ADD103C,0.04400*%
%ADD104C,0.23000*%
%ADD105C,0.02362*%
%ADD106C,0.05000*%
%ADD107C,0.04000*%
G36*
X270000Y372000D02*
X218812D01*
X218605Y372500D01*
X227802Y381698D01*
X228355Y382524D01*
X228549Y383500D01*
Y401000D01*
X232000D01*
Y416000D01*
X229758D01*
X229567Y416462D01*
X233995Y420891D01*
X234548Y421718D01*
X234742Y422693D01*
Y423079D01*
X235260D01*
Y437677D01*
X229126D01*
Y423231D01*
X224198Y418302D01*
X223645Y417476D01*
X223451Y416500D01*
Y416000D01*
X220000D01*
Y413364D01*
X215347D01*
Y413980D01*
X206653D01*
Y413364D01*
X205000D01*
X204025Y413170D01*
X203926Y413104D01*
X203142D01*
Y413524D01*
X199081D01*
X185302Y427302D01*
X185134Y427415D01*
Y431110D01*
X173449D01*
Y422890D01*
X182505D01*
X191467Y413929D01*
X191693Y413524D01*
X191693D01*
X191693Y413524D01*
Y407587D01*
X203142D01*
Y408006D01*
X204740D01*
X205716Y408200D01*
X205814Y408266D01*
X206653D01*
Y407650D01*
X215347D01*
Y408266D01*
X220000D01*
Y401000D01*
X223451D01*
Y384556D01*
X214934Y376039D01*
X150000D01*
Y397636D01*
X157153D01*
Y397020D01*
X165847D01*
Y397636D01*
X168858D01*
Y394004D01*
X180307D01*
Y398951D01*
X191693D01*
Y398532D01*
X203142D01*
Y404468D01*
X191693D01*
Y404049D01*
X180307D01*
Y408996D01*
X168858D01*
Y402734D01*
X165847D01*
Y403350D01*
X157153D01*
Y402734D01*
X150000D01*
Y474226D01*
X154351D01*
X173449Y455128D01*
Y449390D01*
X179188D01*
X200161Y428417D01*
X200735Y427976D01*
X201404Y427699D01*
X202122Y427604D01*
X209047D01*
Y423079D01*
X215181D01*
Y437677D01*
X209047D01*
Y433152D01*
X203271D01*
X185134Y451289D01*
Y457610D01*
X178812D01*
X157461Y478961D01*
X156887Y479402D01*
X156218Y479679D01*
X155500Y479774D01*
X150000D01*
Y487097D01*
X161616D01*
X162073Y486241D01*
X162886Y485252D01*
X163875Y484440D01*
X165005Y483836D01*
X166230Y483464D01*
X167504Y483339D01*
X168778Y483464D01*
X170003Y483836D01*
X171133Y484440D01*
X172122Y485252D01*
X172935Y486241D01*
X173538Y487371D01*
X173910Y488596D01*
X174035Y489870D01*
X173910Y491144D01*
X173538Y492370D01*
X172935Y493499D01*
X172122Y494489D01*
X171133Y495301D01*
X170003Y495904D01*
X168778Y496276D01*
X167504Y496402D01*
X166230Y496276D01*
X165005Y495904D01*
X163875Y495301D01*
X162886Y494489D01*
X162073Y493499D01*
X161616Y492644D01*
X150000D01*
Y507000D01*
X270000D01*
Y372000D01*
D02*
G37*
%LPC*%
G36*
X199000Y455039D02*
X197825Y454884D01*
X196731Y454431D01*
X195791Y453709D01*
X195069Y452769D01*
X194616Y451675D01*
X194461Y450500D01*
X194616Y449325D01*
X195069Y448231D01*
X195791Y447291D01*
X196731Y446569D01*
X197825Y446116D01*
X199000Y445961D01*
X200175Y446116D01*
X201269Y446569D01*
X202209Y447291D01*
X202931Y448231D01*
X203384Y449325D01*
X203539Y450500D01*
X203384Y451675D01*
X202931Y452769D01*
X202209Y453709D01*
X201269Y454431D01*
X200175Y454884D01*
X199000Y455039D01*
D02*
G37*
G36*
X155693D02*
X154518Y454884D01*
X153424Y454431D01*
X152484Y453709D01*
X151762Y452769D01*
X151309Y451675D01*
X151154Y450500D01*
X151309Y449325D01*
X151762Y448231D01*
X152484Y447291D01*
X153424Y446569D01*
X154518Y446116D01*
X155693Y445961D01*
X156868Y446116D01*
X157962Y446569D01*
X158902Y447291D01*
X159624Y448231D01*
X160077Y449325D01*
X160232Y450500D01*
X160077Y451675D01*
X159624Y452769D01*
X158902Y453709D01*
X157962Y454431D01*
X156868Y454884D01*
X155693Y455039D01*
D02*
G37*
G36*
X263528Y449669D02*
X252472D01*
Y446691D01*
X224236D01*
X223261Y446497D01*
X222434Y445944D01*
X217005Y440515D01*
X216452Y439688D01*
X216258Y438713D01*
Y437677D01*
X215740D01*
Y423079D01*
X221874D01*
Y437677D01*
X221874D01*
X221728Y438029D01*
X225292Y441593D01*
X252472D01*
Y438614D01*
X255451D01*
Y416000D01*
X252000D01*
Y401000D01*
X264000D01*
Y416000D01*
X260549D01*
Y438614D01*
X263528D01*
Y449669D01*
D02*
G37*
%LPD*%
D15*
X33000Y317953D02*
X51953D01*
X118200Y413339D02*
Y418261D01*
X81000Y387500D02*
X90500D01*
X56870Y444500D02*
X67720D01*
X45106Y292244D02*
X123500D01*
X36886Y285886D02*
X43245Y292245D01*
X32641Y285886D02*
X36886D01*
X43245Y292245D02*
X45087D01*
X33000Y286500D02*
Y302744D01*
Y308256D02*
X33000Y308256D01*
Y312047D01*
X32142Y309114D02*
X33000Y308256D01*
X21000Y309114D02*
X32142D01*
X33000Y308256D02*
X61256D01*
X33000Y302744D02*
X33256Y303000D01*
X62000D01*
X69689Y310689D01*
X21000Y285886D02*
X32641D01*
X73819Y444303D02*
X77244Y440878D01*
X73622Y444500D02*
X73819Y444303D01*
X77244Y437500D02*
Y440878D01*
X67720Y444500D02*
X73622D01*
X77780Y460953D02*
X77913Y461087D01*
X44201Y460953D02*
X77780D01*
X26460Y169488D02*
X58500Y201528D01*
X20140Y169488D02*
X26460D01*
X26488Y179488D02*
X58500Y211500D01*
X20140Y179488D02*
X26488D01*
X86400Y393600D02*
X86744Y393256D01*
X17201Y351500D02*
X60458Y394757D01*
X12000Y351500D02*
X17201D01*
X9000Y348500D02*
X12000Y351500D01*
X9000Y334720D02*
Y348500D01*
X60458Y394757D02*
X75253D01*
X60945Y392445D02*
X75945D01*
X19000Y350500D02*
X60945Y392445D01*
X19000Y341111D02*
Y350500D01*
X61000Y390000D02*
X76543D01*
X32287Y361287D02*
X61000Y390000D01*
X32287Y344398D02*
Y361287D01*
X51600Y376000D02*
X56319Y371281D01*
X44783Y329283D02*
X51776D01*
X42000Y326500D02*
X44783Y329283D01*
X24389Y326500D02*
X42000D01*
X14389Y336500D02*
X19000Y341111D01*
X19637Y331252D02*
X51776D01*
X14389Y336500D02*
X19637Y331252D01*
X21500Y326500D02*
X24389D01*
X16500Y331500D02*
X21500Y326500D01*
X12220Y331500D02*
X16500D01*
X9000Y334720D02*
X12220Y331500D01*
X21000Y309114D02*
Y315047D01*
X24389Y336500D02*
X32287Y344398D01*
X24389Y336500D02*
X27669Y333220D01*
X51776D01*
X117500Y369500D02*
X120547D01*
X116378Y370622D02*
X117500Y369500D01*
X19408Y403638D02*
X23500D01*
Y387732D02*
X24068D01*
X25500Y386300D01*
X18000Y387732D02*
X23500D01*
X58000Y398547D02*
X66953D01*
X58000Y404453D02*
X58000Y404453D01*
X58000Y404453D02*
Y413500D01*
X29162Y393700D02*
X29500Y394038D01*
X29248Y399500D02*
X29838Y398910D01*
Y393700D02*
Y398910D01*
X196803Y251697D02*
X199106D01*
X121185Y327315D02*
X196803Y251697D01*
X45500Y345000D02*
X47500Y347000D01*
X61953Y422000D02*
X71000D01*
X58000Y418047D02*
X61953Y422000D01*
X58000Y413500D02*
Y418047D01*
X95236Y311500D02*
X95280Y311543D01*
Y317276D01*
X67000Y398500D02*
X70500D01*
X71000Y399000D01*
X86744Y393256D02*
X92744D01*
X86400D02*
X86744D01*
X92744D02*
X97248Y388752D01*
X62225Y387500D02*
X81000D01*
X95280Y376724D02*
Y382720D01*
X90500Y387500D02*
X95280Y382720D01*
X139764Y369500D02*
X144240Y365024D01*
X126453Y369500D02*
X139764D01*
X111224Y370622D02*
X116378D01*
X145500Y347000D02*
X147000Y345500D01*
X124012Y347000D02*
X145500D01*
X122043Y348969D02*
X124012Y347000D01*
X138000Y344500D02*
X147000Y335500D01*
X122543Y344500D02*
X138000D01*
X120043Y347000D02*
X122543Y344500D01*
X111224Y348969D02*
X122043D01*
X147000Y325500D02*
X158000D01*
X130244Y342256D02*
X147000Y325500D01*
X119000Y342256D02*
X130244D01*
X147000Y335500D02*
X158000D01*
X147000Y345500D02*
X158000D01*
X111224Y347000D02*
X120043D01*
X119000Y342256D02*
Y344000D01*
X117968Y345032D02*
X119000Y344000D01*
X111224Y345032D02*
X117968D01*
X97248Y353027D02*
Y362748D01*
X68496Y367500D02*
X92500D01*
X68496D02*
X68498Y367502D01*
X63783Y372217D02*
X68498Y367502D01*
X97248Y362748D02*
Y376724D01*
X97126Y352906D02*
X97248Y353027D01*
X123339Y418261D02*
Y429661D01*
X115500Y437500D02*
X123339Y429661D01*
X127000Y408500D02*
X127000Y408500D01*
Y412744D01*
X126995Y418261D02*
X127000Y418256D01*
X123339Y418261D02*
X126995D01*
X29162Y393700D02*
X29838D01*
X23500D02*
X29162D01*
X18000D02*
X23500D01*
X29500Y394038D02*
X29838Y393700D01*
X104449Y437500D02*
X115500D01*
X104449D02*
Y444303D01*
X73583Y483856D02*
Y494520D01*
X65679Y475953D02*
X73583Y483856D01*
X38438Y475953D02*
X65679D01*
X77913Y461087D02*
Y494520D01*
X106969Y343063D02*
X111224D01*
X97126Y352906D02*
X106969Y343063D01*
X61815Y376724D02*
Y383486D01*
X62225Y383895D01*
X67720Y352906D02*
Y362780D01*
Y323000D02*
Y352906D01*
X97126D01*
X51776D02*
X67720D01*
X97126D02*
X97126Y352906D01*
X95236Y494520D02*
Y499500D01*
X133122Y487122D02*
X136000Y490000D01*
X133122Y460715D02*
Y487122D01*
X56476Y492039D02*
X63937Y499500D01*
X95236D01*
X106260D02*
X113130Y492630D01*
X95236Y499500D02*
X106260D01*
X86575Y455000D02*
Y472500D01*
Y437500D02*
Y455000D01*
X86528Y455047D02*
X86575Y455000D01*
X44201Y455047D02*
X86528D01*
X41569D02*
X44201D01*
X38438Y458178D02*
X41569Y455047D01*
X38438Y458178D02*
Y470047D01*
X38079Y475953D02*
X38438D01*
X86575Y472500D02*
Y494520D01*
X103898Y484063D02*
Y494520D01*
Y484063D02*
X109508Y478453D01*
X119500D01*
X82756Y437500D02*
X86575D01*
Y428175D02*
Y437500D01*
X86400Y428000D02*
X86575Y428175D01*
X111224Y327315D02*
X121185D01*
X42243Y355500D02*
X46806Y350937D01*
X109250Y298256D02*
X115000D01*
X88500Y298000D02*
X109250D01*
X73626Y312874D02*
X88500Y298000D01*
X73626Y312874D02*
Y317276D01*
X71494Y298256D02*
X71657Y298419D01*
Y317276D01*
X123744Y298000D02*
X124000Y298256D01*
X109250Y298000D02*
X123744D01*
X57000Y298256D02*
X71494D01*
X123500Y292244D02*
X124000Y292744D01*
X42243Y348969D02*
X51776D01*
X46806Y350937D02*
X51776D01*
X47500Y347000D02*
X51776D01*
X101185Y376724D02*
Y391957D01*
X94142Y399000D02*
X101185Y391957D01*
X89000Y399000D02*
X94142D01*
X100250Y295500D02*
X106000D01*
X61256Y308256D02*
X65752Y312752D01*
X51953Y317953D02*
X57000Y323000D01*
X117256Y336744D02*
X119000D01*
X115937Y338063D02*
X117256Y336744D01*
X115937Y338063D02*
Y343063D01*
X18000Y393700D02*
Y397732D01*
X97248Y376724D02*
Y388752D01*
X86400Y393600D02*
Y399000D01*
X111224Y343063D02*
X115937D01*
X145000Y460593D02*
X145122Y460715D01*
X145000Y424000D02*
Y460593D01*
X146000Y490000D02*
X146130Y489870D01*
X86400Y422000D02*
Y428000D01*
X56476Y447827D02*
X56870Y447433D01*
X57878Y372622D02*
X67720Y362780D01*
X57878Y372622D02*
Y376724D01*
X63783Y372217D02*
Y376724D01*
X59846Y385122D02*
X62225Y387500D01*
X78700Y395200D02*
Y399000D01*
X75945Y392445D02*
X78700Y395200D01*
X75253Y394757D02*
X76200Y395704D01*
Y399000D01*
X90763Y404500D02*
X103154Y392110D01*
X85650Y404500D02*
X90763D01*
X83800Y402650D02*
X85650Y404500D01*
X90933Y406500D02*
X105122Y392311D01*
X77303Y406500D02*
X90933D01*
X73600Y402797D02*
X77303Y406500D01*
X57000Y323000D02*
X67720D01*
Y317276D02*
Y323000D01*
X59846Y376724D02*
Y385122D01*
X76543Y390000D02*
X81300Y394757D01*
X69689Y310689D02*
Y317276D01*
X56319Y367504D02*
Y371281D01*
X55500Y366685D02*
X56319Y367504D01*
X51776Y366685D02*
X55500D01*
X25500Y386300D02*
X29838D01*
X44500Y368654D02*
X51776D01*
X103154Y376724D02*
Y392110D01*
X83800Y399000D02*
Y402650D01*
X105122Y376724D02*
Y392311D01*
X118224Y408418D02*
X126918D01*
X45087Y292245D02*
X45106Y292244D01*
X81300Y394757D02*
Y399000D01*
X73600D02*
Y402797D01*
X65752Y312752D02*
Y317276D01*
X118200Y418261D02*
X118224D01*
X118200Y413339D02*
X118224D01*
Y418261D02*
X123339D01*
X139028Y460715D02*
X145122D01*
D61*
X179291Y427000D02*
D03*
X165709D02*
D03*
X179291Y453500D02*
D03*
X165709D02*
D03*
D62*
X86400Y387744D02*
D03*
Y393256D02*
D03*
X119000Y342256D02*
D03*
Y336744D02*
D03*
X33000Y302744D02*
D03*
Y308256D02*
D03*
X127000Y418256D02*
D03*
Y412744D02*
D03*
X20031Y423944D02*
D03*
Y429456D02*
D03*
X124000Y298256D02*
D03*
Y292744D02*
D03*
X57000Y298256D02*
D03*
Y292744D02*
D03*
D63*
X44201Y427453D02*
D03*
Y421547D02*
D03*
X58000Y404453D02*
D03*
Y398547D02*
D03*
X44201Y455047D02*
D03*
Y460953D02*
D03*
X38438Y475953D02*
D03*
Y470047D02*
D03*
X119500Y478453D02*
D03*
Y472547D02*
D03*
X33000Y317953D02*
D03*
Y312047D02*
D03*
X18000Y403638D02*
D03*
Y397732D02*
D03*
Y393638D02*
D03*
Y387732D02*
D03*
D64*
X35260Y399500D02*
D03*
X29748D02*
D03*
X32287Y419700D02*
D03*
X26776D02*
D03*
X77244Y437500D02*
D03*
X82756D02*
D03*
D65*
X126453Y369500D02*
D03*
X120547D02*
D03*
X145122Y460715D02*
D03*
X151028D02*
D03*
X133122D02*
D03*
X139028D02*
D03*
D66*
X136760Y365024D02*
D03*
X144240D02*
D03*
X140500Y373882D02*
D03*
D67*
X89000Y399000D02*
D03*
X86400D02*
D03*
X83800D02*
D03*
X81300D02*
D03*
X78700D02*
D03*
X76200D02*
D03*
X73600D02*
D03*
X71000D02*
D03*
Y422000D02*
D03*
X73600D02*
D03*
X76200D02*
D03*
X78700D02*
D03*
X81300D02*
D03*
X83800D02*
D03*
X86400D02*
D03*
X89000D02*
D03*
D68*
X73583Y494520D02*
D03*
X77913D02*
D03*
X82244D02*
D03*
X86575D02*
D03*
X90906D02*
D03*
X95236D02*
D03*
X99567D02*
D03*
X103898D02*
D03*
D69*
X56476Y492039D02*
D03*
D70*
X113130Y492630D02*
D03*
X56870Y447433D02*
D03*
D71*
X111535Y484165D02*
D03*
D72*
Y448732D02*
D03*
D73*
X73819Y444303D02*
D03*
X104449D02*
D03*
D74*
X57878Y376724D02*
D03*
X59846D02*
D03*
X61815D02*
D03*
X63783D02*
D03*
X65752D02*
D03*
X67720D02*
D03*
X69689D02*
D03*
X71657D02*
D03*
X73626D02*
D03*
X75594D02*
D03*
X77563D02*
D03*
X79532D02*
D03*
X81500D02*
D03*
X83469D02*
D03*
X85437D02*
D03*
X87406D02*
D03*
X89374D02*
D03*
X91343D02*
D03*
X93311D02*
D03*
X95280D02*
D03*
X97248D02*
D03*
X99217D02*
D03*
X101185D02*
D03*
X103154D02*
D03*
X105122D02*
D03*
Y317276D02*
D03*
X103154D02*
D03*
X101185D02*
D03*
X99217D02*
D03*
X97248D02*
D03*
X95280D02*
D03*
X93311D02*
D03*
X91343D02*
D03*
X89374D02*
D03*
X87406D02*
D03*
X85437D02*
D03*
X83469D02*
D03*
X81500D02*
D03*
X79532D02*
D03*
X77563D02*
D03*
X75594D02*
D03*
X73626D02*
D03*
X71657D02*
D03*
X69689D02*
D03*
X67720D02*
D03*
X65752D02*
D03*
X63783D02*
D03*
X61815D02*
D03*
X59846D02*
D03*
X57878D02*
D03*
D75*
X111224Y370622D02*
D03*
Y368654D02*
D03*
Y366685D02*
D03*
Y364717D02*
D03*
Y362748D02*
D03*
Y360780D02*
D03*
Y358811D02*
D03*
Y356843D02*
D03*
Y354874D02*
D03*
Y352906D02*
D03*
Y350937D02*
D03*
Y348969D02*
D03*
Y347000D02*
D03*
Y345032D02*
D03*
Y343063D02*
D03*
Y341094D02*
D03*
Y339126D02*
D03*
Y337157D02*
D03*
Y335189D02*
D03*
Y333220D02*
D03*
Y331252D02*
D03*
Y329283D02*
D03*
Y327315D02*
D03*
Y325346D02*
D03*
Y323378D02*
D03*
X51776D02*
D03*
Y325346D02*
D03*
Y327315D02*
D03*
Y329283D02*
D03*
Y331252D02*
D03*
Y333220D02*
D03*
Y335189D02*
D03*
Y337157D02*
D03*
Y339126D02*
D03*
Y341094D02*
D03*
Y343063D02*
D03*
Y345032D02*
D03*
Y347000D02*
D03*
Y348969D02*
D03*
Y350937D02*
D03*
Y352906D02*
D03*
Y354874D02*
D03*
Y356843D02*
D03*
Y358811D02*
D03*
Y360780D02*
D03*
Y362748D02*
D03*
Y364717D02*
D03*
Y366685D02*
D03*
Y368654D02*
D03*
Y370622D02*
D03*
D76*
X30626Y429987D02*
D03*
D77*
X36531Y433924D02*
D03*
Y432350D02*
D03*
Y430775D02*
D03*
Y429200D02*
D03*
Y427625D02*
D03*
Y426050D02*
D03*
X24720D02*
D03*
Y427625D02*
D03*
Y429200D02*
D03*
Y430775D02*
D03*
Y432350D02*
D03*
Y433924D02*
D03*
D78*
X34563Y424082D02*
D03*
X32988D02*
D03*
X31413D02*
D03*
X29838D02*
D03*
X28264D02*
D03*
X26689D02*
D03*
Y435893D02*
D03*
X28264D02*
D03*
X29838D02*
D03*
X31413D02*
D03*
X32988D02*
D03*
X34563D02*
D03*
D79*
X38438Y390000D02*
D03*
D80*
X29838Y386300D02*
D03*
Y393700D02*
D03*
D81*
X108776Y413339D02*
D03*
Y418261D02*
D03*
Y423182D02*
D03*
X118224D02*
D03*
Y418261D02*
D03*
Y413339D02*
D03*
X108776Y408418D02*
D03*
X118224D02*
D03*
D82*
X21000Y285886D02*
D03*
Y309114D02*
D03*
D83*
X71750Y298000D02*
D03*
X109250D02*
D03*
D84*
X211000Y410815D02*
D03*
Y400185D02*
D03*
X161500D02*
D03*
Y410815D02*
D03*
D85*
X212114Y430378D02*
D03*
X218807D02*
D03*
X225500D02*
D03*
X232193D02*
D03*
X238886D02*
D03*
D86*
X225500Y467583D02*
D03*
D87*
X197417Y392445D02*
D03*
Y401500D02*
D03*
Y410555D02*
D03*
D88*
X174583Y401500D02*
D03*
D89*
X258000Y444142D02*
D03*
Y461858D02*
D03*
D90*
X226000Y408500D02*
D03*
X258000D02*
D03*
D91*
X34760Y399500D02*
X35500Y398760D01*
X93500Y426000D02*
Y445000D01*
Y426000D02*
X93554Y425946D01*
X89609Y422000D02*
X93554Y425946D01*
X26657Y419182D02*
Y424064D01*
X53424Y433924D02*
X55000Y435500D01*
X36531Y433924D02*
X53424D01*
X70500Y435500D02*
X78700Y427300D01*
X55000Y435500D02*
X70500D01*
X24000Y438000D02*
X71728D01*
X78700Y422000D02*
Y427300D01*
X81300Y422000D02*
Y428428D01*
X71728Y438000D02*
X81300Y428428D01*
X23500Y438500D02*
X24000Y438000D01*
X36531Y432350D02*
X63134D01*
X69751D01*
X99567Y489000D02*
Y494520D01*
X41125Y427500D02*
X71500D01*
X37850Y430775D02*
X41125Y427500D01*
X47201Y413500D02*
X48000D01*
X44201Y416500D02*
X47201Y413500D01*
X44201Y416500D02*
Y421547D01*
X27500Y416500D02*
X44201D01*
X26776Y417225D02*
X27500Y416500D01*
X35500Y391962D02*
Y398760D01*
X29838Y386300D02*
X35500Y391962D01*
X66953Y398547D02*
X67000Y398500D01*
X26776Y417225D02*
Y419700D01*
X40031Y424227D02*
Y425469D01*
X37875Y427625D02*
X40031Y425469D01*
X36531Y427625D02*
X37875D01*
X36531Y430775D02*
X37850D01*
X24389Y431106D02*
X24720Y430775D01*
X22930Y431106D02*
X24389D01*
X22000Y432036D02*
X22930Y431106D01*
X22000Y432036D02*
Y437000D01*
X23500Y438500D01*
X69751Y432350D02*
X76200Y425900D01*
X38131Y419700D02*
X40031Y421600D01*
X32287Y419700D02*
X38131D01*
X115006Y426400D02*
X118224Y423182D01*
X111994Y426400D02*
X115006D01*
X108776Y423182D02*
X111994Y426400D01*
X100682Y423182D02*
X108776D01*
X92000Y414500D02*
X100682Y423182D01*
X40031Y421600D02*
Y424227D01*
X34708D02*
X40031D01*
X16031Y423944D02*
X20031D01*
X22531Y429200D02*
X24720D01*
X22275Y429456D02*
X22531Y429200D01*
X20031Y429456D02*
X22275D01*
X20031Y423944D02*
X23712Y427625D01*
X71500Y427500D02*
X73600Y425400D01*
Y422000D02*
Y425400D01*
X76200Y422000D02*
Y425900D01*
X89000Y422000D02*
X89609D01*
X86575Y472500D02*
X86622Y472547D01*
X119500D01*
X90906Y489094D02*
Y494520D01*
X82244Y489000D02*
Y494520D01*
X96339Y413339D02*
X108776D01*
X93500Y410500D02*
X96339Y413339D01*
X84244Y410500D02*
X93500D01*
X98516Y418261D02*
X108776D01*
X92756Y412500D02*
X98516Y418261D01*
X85000Y412500D02*
X92756D01*
X85500Y414500D02*
X92000D01*
X83800Y416200D02*
X85500Y414500D01*
X81300Y416200D02*
X85000Y412500D01*
X78700Y416044D02*
X84244Y410500D01*
X83407Y408418D02*
X108776D01*
X76200Y415625D02*
X83407Y408418D01*
X76200Y415625D02*
Y422000D01*
X78700Y416044D02*
Y422000D01*
X83800Y416200D02*
Y422000D01*
X81300Y416200D02*
Y422000D01*
X126918Y408418D02*
X127000Y408500D01*
D92*
X128315Y57500D02*
X140500Y69685D01*
Y124000D01*
X155500Y477000D02*
X202122Y430378D01*
X148063Y477000D02*
X155500D01*
X202122Y430378D02*
X212114D01*
X136000Y489063D02*
X148063Y477000D01*
X136000Y489063D02*
Y490000D01*
X140500Y124000D02*
Y135000D01*
X146130Y489870D02*
X167504D01*
D93*
X161500Y400185D02*
X174583D01*
X211000Y410815D02*
X226000D01*
X178500Y425500D02*
X183500D01*
X197417Y410555D02*
Y411583D01*
X183500Y425500D02*
X197417Y411583D01*
X216500Y374000D02*
X226000Y383500D01*
X158000Y315500D02*
X216500Y374000D01*
X174583Y400185D02*
Y401500D01*
Y400100D02*
Y400185D01*
X135315D02*
X161500D01*
X127000Y408500D02*
X135315Y400185D01*
X226000Y383500D02*
Y408500D01*
X174583Y401500D02*
X197417D01*
Y410555D02*
X204740D01*
X205000Y410815D01*
X211000D01*
X226000Y408500D02*
Y410815D01*
Y416500D02*
X232193Y422693D01*
Y430378D01*
X226000Y410815D02*
Y416500D01*
X218807Y430378D02*
Y438713D01*
X224236Y444142D01*
X258000D01*
Y408500D02*
Y444142D01*
D94*
X108500Y374000D02*
X216500D01*
X132760Y355500D02*
Y362760D01*
X135024Y365024D01*
X136760D01*
X97248Y362748D02*
X108500Y374000D01*
D95*
X14500Y375500D02*
D03*
X58000Y413500D02*
D03*
X132760Y355500D02*
D03*
X146000Y490000D02*
D03*
D96*
X24500Y375500D02*
D03*
X34500D02*
D03*
X14389Y326500D02*
D03*
X24389Y336500D02*
D03*
X14389D02*
D03*
X24389Y346500D02*
D03*
X14389D02*
D03*
X48000Y413500D02*
D03*
X142760Y355500D02*
D03*
X20140Y159488D02*
D03*
Y169488D02*
D03*
Y179488D02*
D03*
Y189488D02*
D03*
Y199488D02*
D03*
X136000Y490000D02*
D03*
X158000Y315500D02*
D03*
Y325500D02*
D03*
Y335500D02*
D03*
Y345500D02*
D03*
Y355500D02*
D03*
D97*
X24389Y326500D02*
D03*
X20140Y149488D02*
D03*
D98*
X189431Y80000D02*
D03*
X216990Y268976D02*
D03*
X20140D02*
D03*
Y80000D02*
D03*
D99*
X140500Y124000D02*
D03*
Y135000D02*
D03*
D100*
X128315Y57500D02*
D03*
X148000D02*
D03*
X167504Y489870D02*
D03*
X187189D02*
D03*
D101*
X116504Y18130D02*
D03*
X159811D02*
D03*
X155693Y450500D02*
D03*
X199000D02*
D03*
D102*
X37000Y236000D02*
D03*
Y56197D02*
D03*
X102394Y236000D02*
D03*
Y56197D02*
D03*
X238500D02*
D03*
Y236000D02*
D03*
X173106Y56197D02*
D03*
Y236000D02*
D03*
D103*
X63000Y251697D02*
D03*
X69697D02*
D03*
X76500D02*
D03*
X212606D02*
D03*
X205803D02*
D03*
X199106D02*
D03*
D104*
X20140Y493000D02*
D03*
Y18762D02*
D03*
X255451D02*
D03*
Y493000D02*
D03*
D105*
X32641Y285886D02*
D03*
X93500Y445000D02*
D03*
X67720Y444500D02*
D03*
X55000Y435500D02*
D03*
X71728Y438000D02*
D03*
X63134Y432350D02*
D03*
X99567Y489000D02*
D03*
X90906Y489094D02*
D03*
X77913Y461087D02*
D03*
X58500Y201528D02*
D03*
Y211500D02*
D03*
X51600Y376000D02*
D03*
X21000Y315047D02*
D03*
X23500Y403638D02*
D03*
Y387732D02*
D03*
X45500Y345000D02*
D03*
X95236Y311500D02*
D03*
X40031Y424227D02*
D03*
X16031Y423944D02*
D03*
X67000Y398500D02*
D03*
X81000Y387500D02*
D03*
X97248Y362748D02*
D03*
X92500Y367500D02*
D03*
X123339Y418261D02*
D03*
X23500Y393700D02*
D03*
X62225Y383895D02*
D03*
X95236Y499500D02*
D03*
X82244Y489000D02*
D03*
X42243Y355500D02*
D03*
Y348969D02*
D03*
X145000Y424000D02*
D03*
X86400Y428000D02*
D03*
X44500Y368654D02*
D03*
D106*
X247000Y493000D02*
D03*
X255451Y484500D02*
D03*
X264000Y493000D02*
D03*
X255500Y501500D02*
D03*
X174500Y388000D02*
D03*
X20140Y502000D02*
D03*
X29140Y493000D02*
D03*
X11140D02*
D03*
X20140Y484000D02*
D03*
Y27762D02*
D03*
X29140Y18762D02*
D03*
X11140D02*
D03*
X20140Y9762D02*
D03*
X255451Y27762D02*
D03*
X264451Y18762D02*
D03*
X246451D02*
D03*
X255451Y9762D02*
D03*
D107*
X127000Y408500D02*
D03*
M02*
