M48
;Layer_Color=9474304
;FILE_FORMAT=2:5
INCH,TZ
;TYPE=PLATED
T1F00S00C0.02400
T2F00S00C0.02756
T3F00S00C0.02800
T4F00S00C0.03543
T5F00S00C0.05500
T6F00S00C0.05906
T7F00S00C0.12205
%
T01
X148500Y136500
X204000Y128000
X228500Y120000
X229000Y147146
X203500Y157000
X199000Y180000
X204500Y194000
X154500Y175000
X139000Y165500
X123000Y181500
X90000Y216500
X149291Y256250
T02
X48000Y196626
X59811
X125500Y204000
X139279
T03
X19000Y87500
X10000Y96500
X28000
X19000Y105500
X249500Y109500
X258500Y105500
Y87500
X267500Y96500
X258500Y249500
X249500Y258500
X267500
X258500Y267500
X28000Y258500
X19000Y249500
X10000Y258500
X19000Y267500
T04
X50000Y125000
X60000
X70000
X80000
X90000
X100000
X68500Y145500
X58500
X211500Y147000
X216500
X221500
Y120000
X216500
X211500
X215500Y105500
X225500
X235500
X222000Y241500
X212000
X202000
X192000
Y251500
X202000
X212000
X222000
T05
X136465Y98965
X153000
Y121012
X136465
T06
X257500Y166500
Y186500
Y212000
Y232000
X19000
Y212000
Y186500
Y166500
T07
X19000Y96500
X258500
Y258500
X19000
M30
