G04*
G04 #@! TF.GenerationSoftware,Altium Limited,Altium Designer,18.0.12 (696)*
G04*
G04 Layer_Color=32768*
%FSLAX25Y25*%
%MOIN*%
G70*
G01*
G75*
%ADD63C,0.00394*%
D63*
X216500Y118032D02*
Y121968D01*
X214531Y120000D02*
X218468D01*
X216500Y145031D02*
Y148969D01*
X214531Y147000D02*
X218468D01*
X27531Y142500D02*
X31468D01*
X29500Y140532D02*
Y144468D01*
X25760Y134626D02*
Y150374D01*
X33240Y134626D02*
Y150374D01*
X25760Y134626D02*
X33240D01*
X25760Y150374D02*
X33240D01*
X45335Y140776D02*
X49665D01*
X45335Y150224D02*
X49665D01*
X45335Y140776D02*
Y150224D01*
X49665Y140776D02*
Y150224D01*
X47500Y143630D02*
Y147370D01*
X45630Y145500D02*
X49370D01*
X152047Y249630D02*
Y253370D01*
X150177Y251500D02*
X153917D01*
X147323Y253665D02*
X156772D01*
X147323Y249335D02*
X156772D01*
X147323D02*
Y253665D01*
X156772Y249335D02*
Y253665D01*
X152047Y259130D02*
Y262870D01*
X150177Y261000D02*
X153917D01*
X147323Y263165D02*
X156772D01*
X147323Y258835D02*
X156772D01*
X147323D02*
Y263165D01*
X156772Y258835D02*
Y263165D01*
X202000Y173130D02*
Y176870D01*
X200130Y175000D02*
X203870D01*
X197276Y177165D02*
X206724D01*
X197276Y172835D02*
X206724D01*
X197276D02*
Y177165D01*
X206724Y172835D02*
Y177165D01*
X156000Y134630D02*
Y138370D01*
X154130Y136500D02*
X157870D01*
X151276Y134335D02*
X160724D01*
X151276Y138665D02*
X160724D01*
Y134335D02*
Y138665D01*
X151276Y134335D02*
Y138665D01*
X211126Y226260D02*
Y233740D01*
X226874Y226260D02*
Y233740D01*
X211126D02*
X226874D01*
X211126Y226260D02*
X226874D01*
X217032Y230000D02*
X220969D01*
X219000Y228031D02*
Y231968D01*
X204374Y226260D02*
Y233740D01*
X188626Y226260D02*
Y233740D01*
Y226260D02*
X204374D01*
X188626Y233740D02*
X204374D01*
X194532Y230000D02*
X198468D01*
X196500Y228031D02*
Y231968D01*
X201000Y110130D02*
Y113870D01*
X199130Y112000D02*
X202870D01*
X196276Y114165D02*
X205724D01*
X196276Y109835D02*
X205724D01*
X196276D02*
Y114165D01*
X205724Y109835D02*
Y114165D01*
X201000Y139130D02*
Y142870D01*
X199130Y141000D02*
X202870D01*
X196276Y143165D02*
X205724D01*
X196276Y138835D02*
X205724D01*
X196276D02*
Y143165D01*
X205724Y138835D02*
Y143165D01*
X232760Y118126D02*
X240240D01*
X232760Y133874D02*
X240240D01*
X232760Y118126D02*
Y133874D01*
X240240Y118126D02*
Y133874D01*
X236500Y124031D02*
Y127969D01*
X234531Y126000D02*
X238469D01*
X232760Y145126D02*
X240240D01*
X232760Y160874D02*
X240240D01*
X232760Y145126D02*
Y160874D01*
X240240Y145126D02*
Y160874D01*
X236500Y151031D02*
Y154969D01*
X234531Y153000D02*
X238469D01*
X216500Y173130D02*
Y176870D01*
X214630Y175000D02*
X218370D01*
X211776Y172835D02*
X221224D01*
X211776Y177165D02*
X221224D01*
Y172835D02*
Y177165D01*
X211776Y172835D02*
Y177165D01*
X162547Y259130D02*
Y262870D01*
X160677Y261000D02*
X164417D01*
X157823Y258835D02*
X167272D01*
X157823Y263165D02*
X167272D01*
Y258835D02*
Y263165D01*
X157823Y258835D02*
Y263165D01*
X162547Y249630D02*
Y253370D01*
X160677Y251500D02*
X164417D01*
X157823Y249335D02*
X167272D01*
X157823Y253665D02*
X167272D01*
Y249335D02*
Y253665D01*
X157823Y249335D02*
Y253665D01*
X195260Y191626D02*
X202740D01*
X195260Y207374D02*
X202740D01*
X195260Y191626D02*
Y207374D01*
X202740Y191626D02*
Y207374D01*
X199000Y197531D02*
Y201468D01*
X197031Y199500D02*
X200969D01*
X171260Y207374D02*
X178740D01*
X171260Y191626D02*
X178740D01*
Y207374D01*
X171260Y191626D02*
Y207374D01*
X175000Y197531D02*
Y201468D01*
X173031Y199500D02*
X176969D01*
X53500Y173531D02*
Y177469D01*
X51531Y175500D02*
X55468D01*
X45626Y179240D02*
X61374D01*
X45626Y171760D02*
X61374D01*
X45626D02*
Y179240D01*
X61374Y171760D02*
Y179240D01*
X144500Y173031D02*
Y176969D01*
X142532Y175000D02*
X146468D01*
X136626Y178740D02*
X152374D01*
X136626Y171260D02*
X152374D01*
X136626D02*
Y178740D01*
X152374Y171260D02*
Y178740D01*
M02*
