G04*
G04 #@! TF.GenerationSoftware,Altium Limited,Altium Designer,18.0.12 (696)*
G04*
G04 Layer_Color=8421504*
%FSLAX25Y25*%
%MOIN*%
G70*
G01*
G75*
%ADD14R,0.04528X0.03543*%
%ADD15R,0.06693X0.04331*%
%ADD16R,0.03543X0.02756*%
%ADD17R,0.03150X0.03543*%
%ADD18R,0.05300X0.12600*%
%ADD19R,0.40000X0.35200*%
%ADD20R,0.04000X0.10600*%
%ADD21R,0.02756X0.03543*%
%ADD22R,0.04331X0.06693*%
%ADD23R,0.10000X0.13000*%
G04:AMPARAMS|DCode=24|XSize=44.88mil|YSize=22.83mil|CornerRadius=5.71mil|HoleSize=0mil|Usage=FLASHONLY|Rotation=270.000|XOffset=0mil|YOffset=0mil|HoleType=Round|Shape=RoundedRectangle|*
%AMROUNDEDRECTD24*
21,1,0.04488,0.01141,0,0,270.0*
21,1,0.03347,0.02283,0,0,270.0*
1,1,0.01141,-0.00571,-0.01673*
1,1,0.01141,-0.00571,0.01673*
1,1,0.01141,0.00571,0.01673*
1,1,0.01141,0.00571,-0.01673*
%
%ADD24ROUNDEDRECTD24*%
%ADD25R,0.09055X0.09055*%
D14*
X196500Y126000D02*
D03*
Y132000D02*
D03*
X169366D02*
D03*
Y126000D02*
D03*
X196567Y156000D02*
D03*
Y162000D02*
D03*
X169433D02*
D03*
Y156000D02*
D03*
D15*
X29500Y137185D02*
D03*
Y147815D02*
D03*
X236500Y120685D02*
D03*
Y131315D02*
D03*
Y147685D02*
D03*
Y158315D02*
D03*
X199000Y194185D02*
D03*
Y204815D02*
D03*
X175000D02*
D03*
Y194185D02*
D03*
D16*
X47500Y142547D02*
D03*
Y148453D02*
D03*
D17*
X149291Y251500D02*
D03*
X154803D02*
D03*
X149291Y261000D02*
D03*
X154803D02*
D03*
X199244Y175000D02*
D03*
X204756D02*
D03*
D18*
X173900Y216500D02*
D03*
X189100D02*
D03*
D19*
X93500Y240100D02*
D03*
D20*
X106900Y203900D02*
D03*
X100200D02*
D03*
X93500D02*
D03*
X86800D02*
D03*
X80100D02*
D03*
D21*
X158953Y136500D02*
D03*
X153047D02*
D03*
X198047Y117500D02*
D03*
X203953D02*
D03*
X198047Y146500D02*
D03*
X203953D02*
D03*
X219453Y175000D02*
D03*
X213547D02*
D03*
X165500Y261000D02*
D03*
X159595D02*
D03*
X165500Y251500D02*
D03*
X159595D02*
D03*
D22*
X213685Y230000D02*
D03*
X224315D02*
D03*
X201815D02*
D03*
X191185D02*
D03*
X48185Y175500D02*
D03*
X58815D02*
D03*
X139185Y175000D02*
D03*
X149815D02*
D03*
D23*
X127000Y165000D02*
D03*
X95000D02*
D03*
D24*
X183260Y204902D02*
D03*
X190740D02*
D03*
Y195098D02*
D03*
X187000D02*
D03*
X183260D02*
D03*
D25*
X78000Y161142D02*
D03*
Y178858D02*
D03*
M02*
