G04*
G04 #@! TF.GenerationSoftware,Altium Limited,Altium Designer,18.0.12 (696)*
G04*
G04 Layer_Color=255*
%FSLAX25Y25*%
%MOIN*%
G70*
G01*
G75*
%ADD14R,0.06693X0.04331*%
%ADD15R,0.03543X0.02756*%
%ADD16R,0.03150X0.03543*%
%ADD17R,0.05300X0.12600*%
%ADD18R,0.40000X0.35200*%
%ADD19R,0.04000X0.10600*%
%ADD20R,0.04528X0.03543*%
%ADD21R,0.02756X0.03543*%
%ADD22R,0.04331X0.06693*%
%ADD23R,0.10000X0.13000*%
G04:AMPARAMS|DCode=24|XSize=44.88mil|YSize=22.83mil|CornerRadius=5.71mil|HoleSize=0mil|Usage=FLASHONLY|Rotation=270.000|XOffset=0mil|YOffset=0mil|HoleType=Round|Shape=RoundedRectangle|*
%AMROUNDEDRECTD24*
21,1,0.04488,0.01141,0,0,270.0*
21,1,0.03347,0.02283,0,0,270.0*
1,1,0.01141,-0.00571,-0.01673*
1,1,0.01141,-0.00571,0.01673*
1,1,0.01141,0.00571,0.01673*
1,1,0.01141,0.00571,-0.01673*
%
%ADD24ROUNDEDRECTD24*%
%ADD25R,0.09055X0.09055*%
%ADD52O,0.03937X0.07874*%
%ADD53O,0.03937X0.07874*%
%ADD54R,0.05906X0.05906*%
%ADD55C,0.05906*%
%ADD56C,0.08859*%
%ADD57R,0.08578X0.08578*%
%ADD58C,0.23000*%
%ADD59C,0.04724*%
%ADD60C,0.07500*%
D14*
X29500Y137185D02*
D03*
Y147815D02*
D03*
X236500Y120685D02*
D03*
Y131315D02*
D03*
Y147685D02*
D03*
Y158315D02*
D03*
X199000Y194185D02*
D03*
Y204815D02*
D03*
X175000D02*
D03*
Y194185D02*
D03*
D15*
X47500Y142547D02*
D03*
Y148453D02*
D03*
D16*
X149291Y251500D02*
D03*
X154803D02*
D03*
X149291Y261000D02*
D03*
X154803D02*
D03*
X199244Y175000D02*
D03*
X204756D02*
D03*
D17*
X173900Y216500D02*
D03*
X189100D02*
D03*
D18*
X93500Y240100D02*
D03*
D19*
X106900Y203900D02*
D03*
X100200D02*
D03*
X93500D02*
D03*
X86800D02*
D03*
X80100D02*
D03*
D20*
X169366Y152000D02*
D03*
Y162000D02*
D03*
X198500D02*
D03*
Y152000D02*
D03*
X169366Y123000D02*
D03*
Y133000D02*
D03*
X198500D02*
D03*
Y123000D02*
D03*
D21*
X158953Y136500D02*
D03*
X153047D02*
D03*
X198047Y112000D02*
D03*
X203953D02*
D03*
X198047Y141000D02*
D03*
X203953D02*
D03*
X219453Y175000D02*
D03*
X213547D02*
D03*
X165500Y261000D02*
D03*
X159595D02*
D03*
X165500Y251500D02*
D03*
X159595D02*
D03*
D22*
X213685Y230000D02*
D03*
X224315D02*
D03*
X201815D02*
D03*
X191185D02*
D03*
X48185Y175500D02*
D03*
X58815D02*
D03*
X139185Y175000D02*
D03*
X149815D02*
D03*
D23*
X127000Y165000D02*
D03*
X95000D02*
D03*
D24*
X183260Y204902D02*
D03*
X190740D02*
D03*
Y195098D02*
D03*
X187000D02*
D03*
X183260D02*
D03*
D25*
X78000Y161142D02*
D03*
Y178858D02*
D03*
D52*
X221500Y120000D02*
D03*
X211500D02*
D03*
X221500Y147000D02*
D03*
X211500D02*
D03*
D53*
X216500Y120000D02*
D03*
Y147000D02*
D03*
D54*
X192000Y241500D02*
D03*
X58500Y145500D02*
D03*
X50000Y125000D02*
D03*
X235500Y105500D02*
D03*
D55*
X192000Y251500D02*
D03*
X202000Y241500D02*
D03*
Y251500D02*
D03*
X212000Y241500D02*
D03*
Y251500D02*
D03*
X222000Y241500D02*
D03*
Y251500D02*
D03*
X68500Y145500D02*
D03*
X60000Y125000D02*
D03*
X70000D02*
D03*
X80000D02*
D03*
X90000D02*
D03*
X100000D02*
D03*
X225500Y105500D02*
D03*
X215500D02*
D03*
D56*
X19000Y186500D02*
D03*
Y232000D02*
D03*
X257500Y166500D02*
D03*
Y212000D02*
D03*
D57*
X19000Y166500D02*
D03*
Y212000D02*
D03*
X257500Y186500D02*
D03*
Y232000D02*
D03*
D58*
X19000Y258500D02*
D03*
X258500D02*
D03*
Y96500D02*
D03*
X19000D02*
D03*
D59*
X139279Y204000D02*
D03*
X125500D02*
D03*
X48000Y196626D02*
D03*
X59811D02*
D03*
D60*
X153000Y102465D02*
D03*
Y119000D02*
D03*
X123500Y102465D02*
D03*
Y119000D02*
D03*
M02*
