G04*
G04 #@! TF.GenerationSoftware,Altium Limited,Altium Designer,18.0.12 (696)*
G04*
G04 Layer_Color=8388736*
%FSLAX25Y25*%
%MOIN*%
G70*
G01*
G75*
%ADD64C,0.00600*%
%ADD65C,0.00500*%
%ADD66C,0.00787*%
G36*
X34006Y163999D02*
X24000D01*
Y169000D01*
X34006D01*
Y163999D01*
D02*
G37*
G36*
X34019Y184022D02*
X24000D01*
Y189000D01*
X34019D01*
Y184022D01*
D02*
G37*
G36*
X34006Y209499D02*
X24000D01*
Y214500D01*
X34006D01*
Y209499D01*
D02*
G37*
G36*
X34019Y229522D02*
X24000D01*
Y234500D01*
X34019D01*
Y229522D01*
D02*
G37*
G36*
X242481Y168978D02*
X252500D01*
Y164000D01*
X242481D01*
Y168978D01*
D02*
G37*
G36*
X242494Y189001D02*
X252500D01*
Y184000D01*
X242494D01*
Y189001D01*
D02*
G37*
G36*
X242481Y214478D02*
X252500D01*
Y209500D01*
X242481D01*
Y214478D01*
D02*
G37*
G36*
X242494Y234501D02*
X252500D01*
Y229500D01*
X242494D01*
Y234501D01*
D02*
G37*
D64*
X177900Y210200D02*
X185100D01*
X177900Y222800D02*
X185100D01*
D65*
X190114Y152000D02*
X189669Y152923D01*
X188670Y153151D01*
X187869Y152512D01*
Y151488D01*
X188670Y150849D01*
X189669Y151077D01*
X190114Y152000D01*
Y123000D02*
X189669Y123923D01*
X188670Y124151D01*
X187869Y123512D01*
Y122488D01*
X188670Y121849D01*
X189669Y122077D01*
X190114Y123000D01*
X2465Y156500D02*
Y196500D01*
X33961D01*
Y156500D02*
Y196500D01*
X2465Y156500D02*
X33961D01*
X2465Y202000D02*
X33961D01*
Y242000D01*
X2465D02*
X33961D01*
X2465Y202000D02*
Y242000D01*
X242539Y196500D02*
X274035D01*
X242539Y156500D02*
Y196500D01*
Y156500D02*
X274035D01*
Y196500D01*
X242539Y242000D02*
X274035D01*
X242539Y202000D02*
Y242000D01*
Y202000D02*
X274035D01*
Y242000D01*
X174937Y147315D02*
X192929D01*
Y166685D01*
X174937D02*
X192929D01*
X174937Y147315D02*
Y166685D01*
Y118315D02*
X192929D01*
Y137685D01*
X174937D02*
X192929D01*
X174937Y118315D02*
Y137685D01*
X193102Y196535D02*
Y203465D01*
X180898Y196535D02*
Y203465D01*
D66*
X183488Y190354D02*
X182866Y190976D01*
X182244Y190354D01*
X182866Y189732D01*
X183488Y190354D01*
M02*
