G04*
G04 #@! TF.GenerationSoftware,Altium Limited,Altium Designer,18.0.12 (696)*
G04*
G04 Layer_Color=16711935*
%FSLAX25Y25*%
%MOIN*%
G70*
G01*
G75*
%ADD38C,0.09800*%
%ADD39R,0.09800X0.09800*%
%ADD40O,0.04737X0.08674*%
%ADD41O,0.04737X0.08674*%
%ADD42R,0.06706X0.06706*%
%ADD43C,0.06706*%
%ADD44C,0.09659*%
%ADD45R,0.09378X0.09378*%
%ADD46C,0.23800*%
%ADD47C,0.05524*%
%ADD48C,0.04800*%
%ADD49C,0.05800*%
D38*
X136465Y121012D02*
D03*
X153000D02*
D03*
D39*
X136465Y98965D02*
D03*
X153000D02*
D03*
D40*
X221500Y120000D02*
D03*
X211500D02*
D03*
X221500Y147000D02*
D03*
X211500D02*
D03*
D41*
X216500Y120000D02*
D03*
Y147000D02*
D03*
D42*
X192000Y241500D02*
D03*
X58500Y145500D02*
D03*
X50000Y125000D02*
D03*
X235500Y105500D02*
D03*
D43*
X192000Y251500D02*
D03*
X202000Y241500D02*
D03*
Y251500D02*
D03*
X212000Y241500D02*
D03*
Y251500D02*
D03*
X222000Y241500D02*
D03*
Y251500D02*
D03*
X68500Y145500D02*
D03*
X60000Y125000D02*
D03*
X70000D02*
D03*
X80000D02*
D03*
X90000D02*
D03*
X100000D02*
D03*
X225500Y105500D02*
D03*
X215500D02*
D03*
D44*
X19000Y186500D02*
D03*
Y232000D02*
D03*
X257500Y166500D02*
D03*
Y212000D02*
D03*
D45*
X19000Y166500D02*
D03*
Y212000D02*
D03*
X257500Y186500D02*
D03*
Y232000D02*
D03*
D46*
X19000Y258500D02*
D03*
X258500D02*
D03*
Y96500D02*
D03*
X19000D02*
D03*
D47*
X139279Y204000D02*
D03*
X125500D02*
D03*
X48000Y196626D02*
D03*
X59811D02*
D03*
D48*
X123000Y181500D02*
D03*
X203500Y157000D02*
D03*
X148500Y136500D02*
D03*
X199000Y180000D02*
D03*
X154500Y175000D02*
D03*
X204500Y194000D02*
D03*
X149291Y256250D02*
D03*
X139000Y165500D02*
D03*
X228500Y120000D02*
D03*
X229000Y147146D02*
D03*
X90000Y216500D02*
D03*
X204000Y128000D02*
D03*
D49*
X19000Y249500D02*
D03*
X10000Y258500D02*
D03*
X28000D02*
D03*
X19000Y267500D02*
D03*
X258500Y249500D02*
D03*
X249500Y258500D02*
D03*
X267500D02*
D03*
X258500Y267500D02*
D03*
Y87500D02*
D03*
X249500Y109500D02*
D03*
X267500Y96500D02*
D03*
X258500Y105500D02*
D03*
X19000Y87500D02*
D03*
X10000Y96500D02*
D03*
X28000D02*
D03*
X19000Y105500D02*
D03*
M02*
