G04*
G04 #@! TF.GenerationSoftware,Altium Limited,Altium Designer,18.0.12 (696)*
G04*
G04 Layer_Color=32896*
%FSLAX25Y25*%
%MOIN*%
G70*
G01*
G75*
%ADD64C,0.00600*%
D64*
X73500Y222500D02*
Y256500D01*
X113500D01*
Y222500D02*
Y256500D01*
X73500Y222500D02*
X113500D01*
X108800Y200000D02*
Y222500D01*
X105000Y200000D02*
X108800D01*
X105000D02*
Y222500D01*
X108800D01*
X102100Y200000D02*
Y222500D01*
X98300Y200000D02*
X102100D01*
X98300D02*
Y222500D01*
X102100D01*
X95400Y200000D02*
Y222500D01*
X91600Y200000D02*
X95400D01*
X91600D02*
Y222500D01*
X95400D01*
X88700Y200000D02*
Y222500D01*
X84900Y200000D02*
X88700D01*
X84900D02*
Y222500D01*
X88700D01*
X82000Y200000D02*
Y222500D01*
X78200Y200000D02*
X82000D01*
X78200D02*
Y222500D01*
X82000D01*
X73500D02*
Y256500D01*
X113500D01*
Y222500D02*
Y256500D01*
X73500Y222500D02*
X113500D01*
X108800Y200000D02*
Y222500D01*
X105000Y200000D02*
X108800D01*
X105000D02*
Y222500D01*
X108800D01*
X102100Y200000D02*
Y222500D01*
X98300Y200000D02*
X102100D01*
X98300D02*
Y222500D01*
X102100D01*
X95400Y200000D02*
Y222500D01*
X91600Y200000D02*
X95400D01*
X91600D02*
Y222500D01*
X95400D01*
X88700Y200000D02*
Y222500D01*
X84900Y200000D02*
X88700D01*
X84900D02*
Y222500D01*
X88700D01*
X82000Y200000D02*
Y222500D01*
X78200Y200000D02*
X82000D01*
X78200D02*
Y222500D01*
X82000D01*
M02*
